<svg width="126" height="120" viewBox="0 0 126 120" fill="none" xmlns="http://www.w3.org/2000/svg">
<rect opacity="0.5" x="0.556641" y="36.438" width="51.5066" height="51.5112" rx="5" transform="rotate(-21.6563 0.556641 36.438)" fill="#239BDE"/>
<g clip-path="url(#clip0)">
<path d="M18.3729 57.1648C17.0527 53.6971 23.1891 48.1421 32.0789 44.7577C40.9688 41.3732 49.246 41.4417 50.5661 44.909C51.8861 48.3763 45.7498 53.9305 36.8597 57.3151C27.9695 60.6997 19.6929 60.6321 18.3729 57.1648Z" fill="#006891"/>
<path d="M18.3729 57.1648C17.0527 53.6971 23.1891 48.1421 32.0789 44.7577C40.9688 41.3732 49.246 41.4417 50.5661 44.909C51.8861 48.3763 45.7498 53.9305 36.8597 57.3151C27.9695 60.6997 19.6929 60.6321 18.3729 57.1648Z" stroke="#006891" stroke-width="1.40509" stroke-miterlimit="3.8636"/>
<path fill-rule="evenodd" clip-rule="evenodd" d="M25.4348 57.9692L24.7312 51.0969L27.3681 50.093L28.7645 53.7609L28.7818 53.7543L29.1742 49.4054L31.8528 48.3856L32.5564 55.258L30.8153 55.9208L30.3633 51.5129L30.3461 51.5194L29.7423 56.3293L28.3481 56.8601L26.8252 52.8599L26.7968 52.8707L27.2487 57.2787L25.4348 57.9692Z" fill="white"/>
<path fill-rule="evenodd" clip-rule="evenodd" d="M34.7437 54.566L34.6434 53.5894L36.5651 52.8578L36.665 53.8345L34.7437 54.566Z" fill="#EE4034"/>
<path fill-rule="evenodd" clip-rule="evenodd" d="M34.6153 53.3151L34.207 49.3192L32.4601 49.9842L32.2801 48.2226L37.6952 46.161L37.8755 47.9225L36.1287 48.5876L36.537 52.5823L34.6153 53.3151Z" fill="#FFC325"/>
<path fill-rule="evenodd" clip-rule="evenodd" d="M38.8293 52.8687L38.1247 45.9967L40.0118 45.2782L42.1336 48.291L42.1502 48.2846L41.7736 44.6075L43.5181 43.9434L44.2224 50.8155L42.427 51.499L40.2058 48.445L40.1892 48.4513L40.5738 52.2045L38.8293 52.8687Z" fill="white"/>
</g>
<rect opacity="0.5" x="22.3848" y="92.124" width="51.5066" height="51.5112" rx="5" transform="rotate(-21.4468 22.3848 92.124)" fill="#239BDE"/>
<g clip-path="url(#clip1)">
<path d="M53.5477 90.3899C54.5025 90.0477 55.4762 89.8889 56.4836 90.0028C57.3726 90.1056 58.1808 90.4121 58.8714 90.9928C59.3231 91.3778 59.6991 91.8435 59.9803 92.3662C60.5302 93.3657 60.7567 94.4468 60.7821 95.5774C60.7967 96.2406 60.7189 96.8968 60.614 97.5521C60.3999 98.8861 59.9527 100.14 59.3339 101.335C58.5404 102.869 57.5804 104.311 56.4712 105.635C56.0411 106.147 55.5725 106.617 55.0236 107.003C54.6887 107.243 54.3222 107.435 53.9346 107.575C53.4228 107.755 52.9388 107.672 52.484 107.398C52.0677 107.155 51.7551 106.768 51.6056 106.309C51.5621 106.183 51.5335 106.051 51.5207 105.918C51.4602 105.196 51.476 104.476 51.6361 103.766C51.7586 103.223 51.9541 102.708 52.2956 102.265C52.6753 101.772 53.1641 101.439 53.7937 101.348C53.9916 101.323 54.1926 101.338 54.3843 101.394C54.8698 101.524 55.0104 101.961 54.9291 102.304C54.8607 102.602 54.7689 102.893 54.6546 103.176C54.4593 103.651 54.2364 104.114 54.0247 104.582C53.8374 104.996 53.6737 105.418 53.5799 105.864C53.5314 106.096 53.4934 106.327 53.5448 106.564C53.6089 106.862 53.8271 106.999 54.1213 106.919C54.273 106.876 54.4155 106.806 54.542 106.712C54.9339 106.427 55.2668 106.081 55.5868 105.721C56.0799 105.166 56.4985 104.557 56.8947 103.93C57.3749 103.171 57.8284 102.398 58.2085 101.583C58.6418 100.657 58.9789 99.6997 59.1309 98.684C59.2421 97.9423 59.2505 97.1998 59.1019 96.4624C58.9715 95.8128 58.6931 95.2365 58.1988 94.7802C57.9581 94.5533 57.6572 94.4005 57.3321 94.3399C57.1819 94.312 57.0279 94.3121 56.8778 94.3404C56.331 94.4413 55.8627 94.7015 55.436 95.0466C54.9913 95.4066 54.6126 95.831 54.2556 96.2733C53.4817 97.2354 52.7065 98.1977 52.0071 99.2167C51.6564 99.7274 51.3283 100.254 50.992 100.774C50.6883 101.244 50.3889 101.717 50.0248 102.145C49.7312 102.497 49.3847 102.801 48.9977 103.047C48.5167 103.347 48.0001 103.429 47.4535 103.311C46.8862 103.188 46.4152 102.905 46.0751 102.424C45.8596 102.121 45.7701 101.774 45.723 101.413C45.6532 100.883 45.702 100.361 45.8121 99.8422C46.0851 98.5604 46.5866 97.3721 47.271 96.2606C48.2853 94.6135 49.5387 93.1684 51.0093 91.912C51.7637 91.2653 52.6219 90.7507 53.5477 90.3899Z" fill="white"/>
<path d="M50.6319 118.451C50.5055 118.128 50.3592 117.85 50.0767 117.667C49.9395 117.579 49.7787 117.534 49.6156 117.54C49.1925 117.546 48.8185 117.703 48.4908 117.957C48.2281 118.159 47.9885 118.392 47.7396 118.612C47.6901 118.655 47.6481 118.702 47.5903 118.759C47.3264 118.47 47.0685 118.191 46.7988 117.9C46.9667 117.727 47.122 117.556 47.2886 117.397C47.6724 117.031 48.0961 116.719 48.583 116.503C49.0699 116.286 49.5714 116.129 50.1152 116.201C50.7296 116.281 51.2464 116.534 51.6148 117.047C51.6651 117.113 51.7073 117.185 51.7406 117.261C52.0375 117.995 52.3413 118.725 52.6215 119.465C52.8129 119.97 52.9691 120.489 53.1437 121.001C53.167 121.072 53.1627 121.148 53.1317 121.216C52.9233 121.739 52.5905 122.171 52.167 122.536C51.7121 122.925 51.1812 123.215 50.608 123.389C50.0807 123.553 49.5556 123.509 49.0472 123.299C48.5388 123.089 48.1168 122.763 47.849 122.271C47.4825 121.598 47.4567 120.904 47.7781 120.204C47.9848 119.755 48.3269 119.434 48.7611 119.204C49.2416 118.949 49.755 118.777 50.2623 118.589L50.6319 118.451ZM50.9983 119.633C50.9663 119.638 50.9347 119.645 50.9035 119.654C50.7301 119.715 50.5536 119.774 50.3815 119.841C50.1752 119.922 49.9672 120.001 49.7682 120.098C49.5626 120.198 49.3789 120.338 49.2669 120.542C49.081 120.881 49.115 121.22 49.3121 121.543C49.5564 121.943 49.9094 122.153 50.386 122.121C50.6318 122.104 50.8696 122.027 51.0777 121.895C51.2733 121.778 51.4339 121.611 51.543 121.411C51.5624 121.379 51.5748 121.344 51.5795 121.308C51.5841 121.271 51.5809 121.234 51.5699 121.198C51.52 121.045 51.483 120.887 51.4276 120.735C51.3003 120.388 51.1655 120.043 51.0331 119.698C51.0228 119.675 51.0111 119.654 50.9983 119.633Z" fill="white"/>
<path d="M68.3141 113.121C67.0829 113.581 65.8649 114.007 64.6518 114.497C64.6903 114.581 64.7246 114.661 64.762 114.738C64.9152 115.051 65.1035 115.341 65.3525 115.588C65.5503 115.791 65.7958 115.942 66.0666 116.026C66.4941 116.154 66.8895 116.053 67.2689 115.853C67.5825 115.687 67.8442 115.452 68.1047 115.216C68.2243 115.108 68.3412 114.997 68.4691 114.879C68.7249 115.125 68.9759 115.367 69.2358 115.616C69.2161 115.646 69.1991 115.677 69.1769 115.704C68.7125 116.281 68.1567 116.749 67.4868 117.068C66.876 117.359 66.2346 117.481 65.5587 117.336C65.0983 117.237 64.7126 116.998 64.3544 116.704C63.9115 116.336 63.5545 115.876 63.3085 115.356C62.851 114.411 62.7179 113.421 62.909 112.387C63.0431 111.668 63.4515 111.152 64.071 110.795C64.6383 110.461 65.3028 110.331 65.9541 110.426C66.3178 110.477 66.625 110.656 66.9068 110.881C67.2791 111.176 67.5572 111.551 67.7781 111.965C67.9566 112.299 68.1045 112.649 68.2654 112.993C68.2825 113.029 68.2941 113.067 68.3141 113.121ZM66.4047 112.564C66.2108 112.264 66.0368 111.947 65.7186 111.75C65.5595 111.652 65.372 111.611 65.1867 111.633C64.6899 111.683 64.3136 112.061 64.2794 112.562C64.2669 112.74 64.2881 112.921 64.2976 113.1C64.3021 113.181 64.3157 113.262 64.325 113.342C64.4584 113.329 66.293 112.644 66.4056 112.565L66.4047 112.564Z" fill="white"/>
<path d="M58.3672 111.142L59.7512 110.365L60.4262 112.17C60.7595 112.067 61.0621 111.93 61.3869 111.847L61.8027 112.958C61.4889 113.081 61.1763 113.187 60.8613 113.328C60.8847 113.39 60.9022 113.437 60.9197 113.484C61.3173 114.554 61.7152 115.625 62.1136 116.696C62.1767 116.865 62.2533 117.028 62.3313 117.19C62.452 117.44 62.6565 117.55 62.9303 117.519C63.0814 117.503 63.2306 117.469 63.3806 117.444L63.532 117.42L63.8849 118.363C63.872 118.377 63.8573 118.389 63.8412 118.398C63.4312 118.573 63.0118 118.717 62.5628 118.746C62.1246 118.774 61.7157 118.682 61.3603 118.41C61.1586 118.257 61.0099 118.055 60.8947 117.832C60.8233 117.692 60.76 117.548 60.7054 117.401C59.9453 115.369 59.1864 113.337 58.4288 111.305L58.3672 111.142Z" fill="white"/>
<path d="M67.2509 107.819L68.5794 107.042L68.6527 107.238C69.343 109.083 70.0341 110.928 70.7259 112.773C70.8523 113.11 70.9815 113.447 71.1106 113.784C71.2376 114.117 71.4228 114.241 71.7785 114.221C71.898 114.211 72.0167 114.193 72.1341 114.169C72.2066 114.156 72.2774 114.136 72.3635 114.116L72.724 115.079C72.7188 115.088 72.7114 115.096 72.7025 115.102C72.3051 115.269 71.9008 115.413 71.4656 115.445C71.2023 115.466 70.9376 115.432 70.6875 115.347C70.2216 115.189 69.93 114.852 69.7277 114.425C69.6685 114.3 69.6211 114.169 69.5728 114.039C68.8177 112.02 68.064 110.002 67.3119 107.982L67.2509 107.819Z" fill="white"/>
<path d="M58.5341 120.29L57.0992 120.827C57.075 120.768 57.0517 120.714 57.0311 120.66C56.7071 119.798 56.3833 118.937 56.0599 118.075C55.8005 117.387 55.5385 116.7 55.2811 116.011C55.2349 115.886 55.1978 115.758 55.1703 115.627C55.1388 115.478 55.1687 115.333 55.2341 115.196C55.5924 114.436 56.1447 113.855 56.8616 113.425C57.311 113.156 57.8053 112.97 58.3207 112.877C58.348 112.872 58.3757 112.868 58.403 112.865C58.4165 112.864 58.4305 112.865 58.4578 112.866C58.4498 113.341 58.3994 113.811 58.3587 114.273C58.1351 114.356 57.9209 114.429 57.7127 114.516C57.3524 114.665 57.0277 114.888 56.7599 115.171C56.684 115.251 56.6706 115.321 56.7109 115.428C57.3018 116.995 57.8896 118.564 58.4744 120.133L58.5341 120.29Z" fill="white"/>
<path d="M53.6307 114.78C54.4502 116.924 55.2332 119.068 56.0515 121.213L54.6473 121.738C54.6244 121.688 54.5972 121.636 54.577 121.582C54.0713 120.23 53.5656 118.878 53.0598 117.526C52.828 116.907 52.6014 116.285 52.3722 115.665C52.3546 115.618 52.337 115.57 52.3148 115.511L53.6307 114.78Z" fill="white"/>
<path d="M52.6332 114.432C51.9469 114.687 51.2623 114.165 51.3057 113.415C51.3326 112.954 51.5767 112.692 52.0107 112.532C52.5928 112.32 53.2389 112.736 53.3115 113.352C53.3695 113.844 53.1111 114.255 52.6332 114.432Z" fill="white"/>
</g>
<g opacity="0.5">
<rect x="78.291" y="70.3418" width="51.5066" height="51.5112" rx="5" transform="rotate(-21.5821 78.291 70.3418)" fill="#FDFDFD"/>
<rect x="78.291" y="70.3418" width="51.5066" height="51.5112" rx="5" transform="rotate(-21.5821 78.291 70.3418)" fill="#239BDE"/>
</g>
<path fill-rule="evenodd" clip-rule="evenodd" d="M110.85 96.4508C111.195 96.3291 111.473 96.3132 111.683 96.4031C111.894 96.493 112.054 96.6921 112.163 97.0003L112.746 98.6528L112.229 98.8353L111.67 97.2528C111.547 96.9043 111.291 96.799 110.9 96.9369C110.73 96.9951 110.581 97.1002 110.469 97.24C110.531 97.3355 110.58 97.4383 110.616 97.5461L111.2 99.1985L110.682 99.3811L110.124 97.7986C110.001 97.4501 109.744 97.3448 109.353 97.4827C109.175 97.5458 109.009 97.6403 108.864 97.7616L109.574 99.7722L109.057 99.9547L108.247 97.6604C108.389 97.5149 108.547 97.3877 108.72 97.2819C108.903 97.165 109.099 97.0689 109.303 96.9952C109.626 96.8813 109.888 96.8595 110.089 96.9296C110.303 96.715 110.564 96.5514 110.85 96.4508ZM114.545 98.1031C114.151 98.2423 113.815 98.234 113.537 98.0784C113.259 97.9227 113.043 97.6293 112.891 97.1981C112.583 96.3254 112.823 95.7499 113.612 95.4718C114.01 95.3315 114.348 95.338 114.627 95.4912C114.906 95.6444 115.121 95.9334 115.271 96.3582C115.421 96.7826 115.433 97.1459 115.307 97.448C115.181 97.75 114.927 97.9684 114.545 98.1031ZM114.384 97.6618C114.837 97.5018 114.96 97.1283 114.753 96.5411C114.65 96.2491 114.519 96.05 114.36 95.9436C114.202 95.8373 114.004 95.8259 113.767 95.9095C113.527 95.9941 113.381 96.1284 113.33 96.3126C113.279 96.4968 113.304 96.7316 113.404 97.017C113.505 97.3022 113.635 97.5015 113.795 97.6149C113.955 97.7284 114.151 97.7437 114.383 97.6607L114.384 97.6618ZM116.538 94.4447C116.906 94.3149 117.224 94.3276 117.493 94.4826C117.761 94.6377 117.968 94.9189 118.112 95.3261C118.286 95.8172 118.294 96.2051 118.138 96.4896C117.982 96.7741 117.728 96.9789 117.376 97.1039C116.67 97.3531 116.251 97.2886 116.117 96.9104L115.056 93.9031L115.568 93.7223L115.957 94.8233C116.043 94.7377 116.138 94.6619 116.24 94.5973C116.333 94.535 116.433 94.4834 116.537 94.4436L116.538 94.4447ZM117.177 96.6648C117.446 96.57 117.607 96.4256 117.659 96.2317C117.712 96.0378 117.69 95.8048 117.594 95.5327C117.496 95.2541 117.364 95.0618 117.199 94.9557C117.034 94.8496 116.84 94.836 116.617 94.9149C116.52 94.9499 116.428 94.9965 116.342 95.0538C116.256 95.1098 116.178 95.178 116.111 95.2562L116.586 96.6005C116.642 96.7622 116.839 96.7833 117.177 96.6638L117.177 96.6648ZM117.958 93.0256L118.51 92.8309L118.676 93.3039L118.125 93.4986L117.958 93.0256ZM118.285 93.9063L118.803 93.7238L119.684 96.2056L119.162 96.3899L118.285 93.9063ZM120.412 95.9486L119.196 92.5036L119.709 92.3228L120.924 95.7667L120.412 95.9486ZM121.754 92.5961C122.138 92.4605 122.464 92.4866 122.731 92.6744C122.999 92.8622 123.21 93.1821 123.366 93.634L121.632 94.2462C121.735 94.4859 121.873 94.6473 122.044 94.7303C122.216 94.8134 122.418 94.8138 122.651 94.7314C122.93 94.6333 123.18 94.4662 123.377 94.2457L123.549 94.7335C123.333 94.9377 123.06 95.0981 122.729 95.2149C122.358 95.3458 122.027 95.335 121.735 95.1825C121.443 95.03 121.223 94.7447 121.076 94.3266C120.924 93.8986 120.909 93.5357 121.029 93.2379C121.149 92.9402 121.391 92.7262 121.754 92.5961ZM121.891 93.0315C121.717 93.0929 121.597 93.1875 121.531 93.3153C121.466 93.443 121.457 93.6232 121.506 93.8558L122.703 93.4333C122.605 93.2291 122.491 93.0949 122.361 93.0308C122.232 92.9667 122.075 92.9669 121.891 93.0315ZM109.724 74.2997C109.104 74.36 108.64 74.4443 108.332 74.5528C106.036 75.363 104.83 77.8751 105.637 80.1629C106.444 82.4507 108.961 83.6489 111.256 82.839C113.552 82.029 114.759 79.5166 113.952 77.2285C113.834 76.8942 113.676 76.5754 113.482 76.279L116.473 74.2223C117.1 75.1457 117.525 76.1906 117.722 77.2892C117.919 78.3879 117.883 79.5156 117.615 80.5992L115.723 92.6775L110.653 94.4668L111.912 86.5543C111.919 86.5108 111.832 86.4506 111.782 86.4634C107.809 87.4725 103.655 85.3103 102.269 81.3824C100.8 77.2207 102.994 72.6526 107.17 71.1788C107.935 70.9082 108.735 70.7547 109.545 70.7237L109.724 74.2997Z" fill="white"/>
<path d="M110.574 80.9802C111.833 80.5361 112.493 79.1558 112.049 77.8974C111.605 76.6389 110.225 75.9788 108.966 76.4229C107.708 76.867 107.048 78.2472 107.492 79.5057C107.936 80.7642 109.316 81.4243 110.574 80.9802Z" fill="#D6E806"/>
<path d="M115.623 73.6713C114.275 72.115 112.366 71.1556 110.313 71.0026M113.158 75.7642C112.415 74.9153 111.372 74.386 110.248 74.2867L113.158 75.7642ZM114.389 74.6307C113.348 73.4569 111.902 72.7193 110.34 72.5652L114.389 74.6307Z" stroke="#D6E806" stroke-width="0.3" stroke-linecap="round"/>
<g opacity="0.5">
<rect x="56.3711" y="14.418" width="51.5066" height="51.5112" rx="5" transform="rotate(-21.5086 56.3711 14.418)" fill="#FDFDFD"/>
<rect x="56.3711" y="14.418" width="51.5066" height="51.5112" rx="5" transform="rotate(-21.5086 56.3711 14.418)" fill="#239BDE"/>
</g>
<path d="M94.4116 40.2676C100.584 37.8483 103.626 30.8834 101.207 24.7112C98.7876 18.5389 91.8227 15.4965 85.6505 17.9158C79.4782 20.3352 76.4358 27.3 78.8552 33.4723C81.2745 39.6445 88.2393 42.6869 94.4116 40.2676Z" fill="#50B651"/>
<path opacity="0.663" fill-rule="evenodd" clip-rule="evenodd" d="M101.16 24.6926C103.587 30.8843 100.535 37.8709 94.3451 40.2972C88.1548 42.7236 81.1668 39.6723 78.7399 33.4806C77.6663 30.7417 77.5835 30.3043 78.0504 28.3224C78.0504 28.3224 78.6851 30.1055 80.3874 30.6474C81.4456 30.9838 82.0994 30.1852 83.3565 28.8774C84.7162 27.4621 85.8718 26.4398 86.9753 26.1575C88.6378 25.7324 94.675 26.7517 96.9963 25.1676C98.8511 23.9031 96.7532 19.1837 96.7532 19.1837C99.8302 20.4844 100.129 22.0616 101.16 24.6926Z" fill="url(#paint0_linear)"/>
<path opacity="0.586" fill-rule="evenodd" clip-rule="evenodd" d="M97.9871 35.4358C100.547 30.0327 99.5081 25.3994 94.8713 21.5357C94.8889 21.5403 94.8299 20.8968 94.6942 19.6053C96.8183 20.7851 98.4282 22.638 99.5238 25.1639C100.824 28.4824 100.311 31.9063 97.9871 35.4358Z" fill="url(#paint1_linear)"/>
<path opacity="0.744" fill-rule="evenodd" clip-rule="evenodd" d="M90.2577 21.3714C87.8761 21.0554 84.7768 19.7567 84.8959 19.1821C85.0151 18.6076 88.9197 17.1679 91.3016 17.4838C93.6835 17.7997 96.6229 20.3959 96.5041 20.9703C96.3853 21.5447 92.6393 21.6874 90.2577 21.3714Z" fill="url(#paint2_radial)"/>
<path fill-rule="evenodd" clip-rule="evenodd" d="M95.6322 30.0707C94.0086 30.7071 92.1617 29.8692 91.5073 28.1995C90.8528 26.5298 91.6385 24.6604 93.2621 24.024C94.8856 23.3876 96.7326 24.2251 97.3871 25.8948C98.0416 27.5646 97.256 29.4342 95.6322 30.0707ZM95.2771 29.1035C96.2904 28.7063 96.7506 27.4596 96.3037 26.3195C95.8568 25.1793 94.6724 24.5782 93.6591 24.9754C92.6457 25.3726 92.1855 26.6193 92.6323 27.7592C93.0791 28.899 94.2638 29.5007 95.2771 29.1035Z" fill="white"/>
<path fill-rule="evenodd" clip-rule="evenodd" d="M86.2441 23.9668L88.3625 23.1365L91.6736 31.5839L90.5107 32.0397L87.5627 24.5188L86.6073 24.8933L86.2441 23.9668Z" fill="white"/>
<path fill-rule="evenodd" clip-rule="evenodd" d="M85.6517 27.1059L86.7513 26.6749L89.5164 33.7294C89.7683 34.3722 89.3546 35.3068 88.8086 35.8532C88.5504 36.1114 88.0072 36.4176 87.1791 36.7717L86.904 36.0699C87.688 35.6572 88.1699 35.2579 88.3496 34.8722C88.425 34.5772 88.4231 34.2679 88.3441 33.9739L87.5317 31.9014C87.4822 32.6402 87.2742 33.1987 86.9075 33.5769C86.5417 34.0091 85.5812 34.3381 85.1137 34.28C84.6462 34.222 83.8648 33.8929 83.2841 33.1742C83.1236 32.9759 82.7035 32.4298 82.4662 31.7697C82.2393 31.1415 82.1872 30.4029 82.2523 30.0655C82.3651 29.4887 82.6015 28.7289 83.2083 28.2122C83.5047 27.9597 84.1231 27.6683 85.0637 27.338L85.3372 28.0358C84.6297 28.2595 84.2088 28.4513 84.0745 28.6113C83.8729 28.8508 83.3619 29.2491 83.6651 30.5842C83.9682 31.9193 84.5689 32.8737 85.3004 32.9595C85.5513 32.9896 85.9694 32.9774 86.2628 32.7286C86.8264 32.251 87.1279 31.2174 86.9639 30.6614C86.7971 30.0974 86.3597 28.9122 85.6517 27.1059Z" fill="white"/>
<path fill-rule="evenodd" clip-rule="evenodd" d="M101.688 27.0742C102.609 32.481 99.6515 37.9743 94.3441 40.0546C88.2657 42.4372 81.4064 39.4409 79.0239 33.3625C77.5438 29.5863 78.1395 25.5089 80.2604 22.3912C78.6713 25.2668 78.3282 28.8042 79.6212 32.1028C81.9274 37.9866 88.5666 40.8865 94.4501 38.5803C99.2415 36.7023 102.054 31.9511 101.688 27.0742Z" fill="url(#paint3_radial)"/>
<path fill-rule="evenodd" clip-rule="evenodd" d="M84.9212 16.0145C77.7226 18.8361 74.1741 26.9592 76.9957 34.1577C79.8172 41.3563 87.9406 44.9047 95.1392 42.0832C102.338 39.2616 105.886 31.1382 103.065 23.9396C100.243 16.7411 92.1198 13.1929 84.9212 16.0145ZM94.3443 40.0552C88.2658 42.4377 81.4066 39.4414 79.0241 33.363C77.5439 29.5868 78.1396 25.5094 80.2606 22.3918C81.5975 20.4238 83.4997 18.9073 85.7161 18.0425C91.7946 15.66 98.6537 18.6559 101.036 24.7346C101.333 25.4903 101.551 26.2743 101.688 27.0745C102.609 32.4813 99.6516 37.9746 94.3442 40.0549L94.3443 40.0552Z" fill="white"/>
<defs>
<linearGradient id="paint0_linear" x1="87.6592" y1="24.5144" x2="94.1825" y2="36.9278" gradientUnits="userSpaceOnUse">
<stop stop-color="#123214"/>
<stop offset="0.46" stop-color="#3E7C37"/>
<stop offset="0.91" stop-color="#5FBB46"/>
</linearGradient>
<linearGradient id="paint1_linear" x1="95.6278" y1="20.4174" x2="99.7408" y2="30.9108" gradientUnits="userSpaceOnUse">
<stop stop-color="white" stop-opacity="0"/>
<stop offset="0.64" stop-color="white" stop-opacity="0.43"/>
<stop offset="1" stop-color="white" stop-opacity="0.42"/>
</linearGradient>
<radialGradient id="paint2_radial" cx="0" cy="0" r="1" gradientUnits="userSpaceOnUse" gradientTransform="translate(90.967 20.0564) rotate(5.35724) scale(5.9316 2.47041)">
<stop offset="0.13" stop-color="white"/>
<stop offset="0.29" stop-color="white" stop-opacity="0.69"/>
<stop offset="0.45" stop-color="white" stop-opacity="0.4"/>
<stop offset="0.59" stop-color="white" stop-opacity="0.18"/>
<stop offset="0.69" stop-color="white" stop-opacity="0.05"/>
<stop offset="0.74" stop-color="white" stop-opacity="0"/>
</radialGradient>
<radialGradient id="paint3_radial" cx="0" cy="0" r="1" gradientUnits="userSpaceOnUse" gradientTransform="translate(90.9234 25.7728) rotate(18.4366) scale(13.2925 14.4889)">
<stop offset="0.86" stop-opacity="0"/>
<stop offset="0.98" stop-opacity="0.47"/>
<stop offset="1"/>
</radialGradient>
<clipPath id="clip0">
<rect x="11.0801" y="40.5444" width="36.2525" height="36.2525" transform="rotate(-20.8422 11.0801 40.5444)" fill="white"/>
</clipPath>
<clipPath id="clip1">
<rect x="35.6836" y="96.6714" width="30.6402" height="30.6402" transform="rotate(-20.5105 35.6836 96.6714)" fill="white"/>
</clipPath>
</defs>
</svg>
