<svg width="45" height="45" viewBox="0 0 45 45" fill="none" xmlns="http://www.w3.org/2000/svg">
    <circle cx="22.5" cy="22.5" r="22.5" fill="#FBAD17"/>
    <path d="M36 13.5042V23.521C36 23.7899 35.7723 24.0252 35.512 24.0252C35.2518 24.0252 35.0241 23.7899 35.0241 23.521V14.0084H9.9759V29.0336H25.6229C25.8831 29.0336 26.1108 29.2689 26.1108 29.5378C26.1108 29.8067 25.8831 30.042 25.6229 30.042H9.48795C9.22771 30.042 9 29.8067 9 29.5378V13.5042C9 13.2353 9.22771 13 9.48795 13H35.512C35.7723 13 36 13.2017 36 13.5042ZM29.3964 20.1597C28.941 20.5294 28.388 20.7311 27.8024 20.7311C26.3711 20.7311 25.2 19.521 25.2 18.042C25.2 16.563 26.3711 15.3529 27.8024 15.3529C28.388 15.3529 28.941 15.5546 29.3964 15.9244C29.8518 15.5546 30.4048 15.3529 30.9904 15.3529C32.4217 15.3529 33.5928 16.563 33.5928 18.042C33.5928 19.521 32.4217 20.7311 30.9904 20.7311C30.4048 20.7311 29.8518 20.5294 29.3964 20.1597ZM29.0386 19.1176C29.1361 19.0168 29.2663 18.9496 29.3964 18.9496C29.5265 18.9496 29.6892 19.0168 29.7542 19.1176C30.0795 19.4874 30.5024 19.6891 30.9904 19.6891C31.9012 19.6891 32.6169 18.9496 32.6169 18.0084C32.6169 17.0672 31.9012 16.3277 30.9904 16.3277C30.5349 16.3277 30.0795 16.5294 29.7542 16.8992C29.559 17.1345 29.2012 17.1345 29.006 16.8992C28.6807 16.5294 28.2578 16.3277 27.7699 16.3277C26.859 16.3277 26.1434 17.0672 26.1434 18.0084C26.1434 18.9496 26.859 19.6891 27.7699 19.6891C28.2578 19.7227 28.7133 19.4874 29.0386 19.1176ZM12.8711 23.0168H16.0265C16.2867 23.0168 16.5145 22.7815 16.5145 22.5126C16.5145 22.2437 16.3193 22.0084 16.059 22.0084H12.9036C12.6434 22.0084 12.4157 22.2437 12.4157 22.5126C12.4157 22.7815 12.6108 23.0168 12.8711 23.0168ZM12.8711 25.9748H24.2566C24.5169 25.9748 24.7446 25.7395 24.7446 25.4706C24.7446 25.2017 24.5169 24.9664 24.2566 24.9664H12.8711C12.6108 24.9664 12.3831 25.2017 12.3831 25.4706C12.3831 25.7395 12.6108 25.9748 12.8711 25.9748ZM21.394 23.0168C21.6542 23.0168 21.8819 22.7815 21.8819 22.5126C21.8819 22.2437 21.6867 22.0084 21.394 22.0084H18.2386C17.9783 22.0084 17.7506 22.2437 17.7506 22.5126C17.7506 22.7815 17.9783 23.0168 18.2386 23.0168H21.394ZM26.7614 22.0084H23.606C23.3458 22.0084 23.1181 22.2437 23.1181 22.5126C23.1181 22.7815 23.3458 23.0168 23.606 23.0168H26.7614C27.0217 23.0168 27.2494 22.7815 27.2494 22.5126C27.2494 22.2437 27.0217 22.0084 26.7614 22.0084ZM28.941 22.0084C28.6807 22.0084 28.453 22.2437 28.453 22.5126C28.453 22.7815 28.6807 23.0168 28.941 23.0168H32.0964C32.3566 23.0168 32.5843 22.7815 32.5843 22.5126C32.5843 22.2437 32.3892 22.0084 32.1289 22.0084H28.941ZM34.5687 26.479C34.3735 26.2773 34.0807 26.2773 33.8855 26.479L31.4783 28.9664L29.0711 26.479C28.8759 26.2773 28.5831 26.2773 28.388 26.479C28.1928 26.6807 28.1928 26.9832 28.388 27.1849L30.7952 29.6723L28.388 32.1597C28.1928 32.3613 28.1928 32.6639 28.388 32.8655C28.4855 32.9664 28.6157 33 28.7458 33C28.8759 33 29.006 32.9664 29.1036 32.8655L31.5108 30.3782L33.9181 32.8655C34.0157 32.9664 34.1458 33 34.2759 33C34.406 33 34.5361 32.9664 34.6337 32.8655C34.8289 32.6639 34.8289 32.3613 34.6337 32.1597L32.2265 29.6723L34.6337 27.1849C34.7313 26.9832 34.7313 26.6807 34.5687 26.479Z" fill="white"/>
</svg>
