<svg id="Layer_1" data-name="Layer 1" xmlns="http://www.w3.org/2000/svg" viewBox="0 0 871 792"><defs><style>.cls-1{fill:#fff;}.cls-2{fill:#9ed8b5;}</style></defs><title>Paynobs Logo</title><path class="cls-1" d="M312.19,363.94a48,48,0,0,1,15,2.08,28.69,28.69,0,0,1,10.33,5.7,22,22,0,0,1,6,8.58A29,29,0,0,1,345.46,391a31.25,31.25,0,0,1-2,11.35,22.69,22.69,0,0,1-6.06,8.86A28.66,28.66,0,0,1,327,416.94,47.62,47.62,0,0,1,312.19,419h-10v27.65H283V363.94Zm0,40.59q7.49,0,10.79-3.57c2.19-2.39,3.29-5.71,3.29-10a15.15,15.15,0,0,0-.85-5.17,10.44,10.44,0,0,0-2.59-4,11.38,11.38,0,0,0-4.37-2.58,19.16,19.16,0,0,0-6.27-.91h-10v26.22Z"/><path class="cls-1" d="M423.06,446.66H408.18a6.47,6.47,0,0,1-4-1.17,7.47,7.47,0,0,1-2.33-3l-4.88-14.42H365.49l-4.87,14.42a7.1,7.1,0,0,1-2.25,2.87,6.26,6.26,0,0,1-4,1.28h-15l32-82.72H391ZM392.57,415l-7.66-22.64c-.57-1.44-1.17-3.13-1.82-5.09s-1.29-4.05-1.93-6.32c-.57,2.31-1.17,4.44-1.81,6.41s-1.25,3.67-1.82,5.11L369.92,415Z"/><path class="cls-1" d="M459.62,415.21v31.45H440.43V415.21l-30-51.27h16.91a6.17,6.17,0,0,1,3.95,1.17,9.69,9.69,0,0,1,2.42,3l11.68,24.07q1.49,2.83,2.68,5.3t2.09,4.86c.57-1.63,1.22-3.26,2-4.91s1.6-3.4,2.59-5.25l11.58-24.07a10.9,10.9,0,0,1,1-1.48,7.28,7.28,0,0,1,1.33-1.33,6.41,6.41,0,0,1,1.77-1,6.08,6.08,0,0,1,2.18-.38h17Z"/><path class="cls-2" d="M569.6,363.94v82.72h-10a8.78,8.78,0,0,1-3.72-.71,9.09,9.09,0,0,1-3-2.47l-39-49.33c.14,1.47.25,2.9.31,4.28s.09,2.68.09,3.89v44.34H497.4V363.94h10.1a15.36,15.36,0,0,1,2.1.12,5.53,5.53,0,0,1,1.54.43,5.37,5.37,0,0,1,1.3.87,15.29,15.29,0,0,1,1.42,1.54l39.34,49.67c-.19-1.59-.32-3.13-.4-4.63s-.12-2.9-.12-4.23V363.94Z"/><path class="cls-2" d="M666.22,405.27a44.28,44.28,0,0,1-3.1,16.69,39.41,39.41,0,0,1-22.25,22.37,49.48,49.48,0,0,1-35.17,0A39.47,39.47,0,0,1,583.37,422a46.48,46.48,0,0,1,0-33.38,39.87,39.87,0,0,1,8.74-13.4,40.53,40.53,0,0,1,13.59-8.91A46.42,46.42,0,0,1,623.3,363a45.78,45.78,0,0,1,17.57,3.26,40.58,40.58,0,0,1,13.54,8.94,39.85,39.85,0,0,1,8.71,13.4A44.16,44.16,0,0,1,666.22,405.27Zm-19.64,0a35.76,35.76,0,0,0-1.59-11,23.78,23.78,0,0,0-4.57-8.32,19.94,19.94,0,0,0-7.3-5.22,25.1,25.1,0,0,0-9.82-1.81,25.48,25.48,0,0,0-9.9,1.81,19.89,19.89,0,0,0-7.33,5.22,23.3,23.3,0,0,0-4.56,8.32,39.33,39.33,0,0,0,0,22.14,23.3,23.3,0,0,0,4.56,8.32,19.37,19.37,0,0,0,7.33,5.19,25.85,25.85,0,0,0,9.9,1.79,25.47,25.47,0,0,0,9.82-1.79,19.42,19.42,0,0,0,7.3-5.19,23.78,23.78,0,0,0,4.57-8.32A35.93,35.93,0,0,0,646.58,405.27Z"/><path class="cls-2" d="M707.38,363.94A58.38,58.38,0,0,1,722,365.53a27.85,27.85,0,0,1,9.82,4.49,17.12,17.12,0,0,1,5.54,7,23.82,23.82,0,0,1,1.72,9.25,18.06,18.06,0,0,1-.79,5.36,15.42,15.42,0,0,1-2.49,4.83,19.89,19.89,0,0,1-4.37,4.12,28.3,28.3,0,0,1-6.42,3.23q8.17,2,12.08,6.42T741,421.74a23.73,23.73,0,0,1-2,9.82,22.49,22.49,0,0,1-6,7.91,28.52,28.52,0,0,1-9.74,5.29,42.58,42.58,0,0,1-13.23,1.9H677V363.94Zm-11.24,14.37v20.43h10a33.15,33.15,0,0,0,5.73-.45,11.86,11.86,0,0,0,4.35-1.59,7.38,7.38,0,0,0,2.72-3.12,11.78,11.78,0,0,0,.93-5,14.16,14.16,0,0,0-.73-4.91,7.11,7.11,0,0,0-2.27-3.15,9.58,9.58,0,0,0-3.89-1.7,26.77,26.77,0,0,0-5.59-.51Zm13.51,53.87a16.75,16.75,0,0,0,6.21-1,9.82,9.82,0,0,0,3.78-2.49,8.34,8.34,0,0,0,1.87-3.47,15.2,15.2,0,0,0,.51-3.91,13,13,0,0,0-.59-4.09,6.71,6.71,0,0,0-2-3.06,10,10,0,0,0-3.84-1.94,22.54,22.54,0,0,0-6-.68H696.14v20.61Z"/><path class="cls-2" d="M798.09,380.75a7,7,0,0,1-1.78,2,4,4,0,0,1-2.42.69,5.9,5.9,0,0,1-2.81-.83l-3.4-1.84a27.61,27.61,0,0,0-4.35-1.85,17.34,17.34,0,0,0-5.56-.82c-3.6,0-6.27.76-8,2.3a7.83,7.83,0,0,0-2.63,6.21,5.74,5.74,0,0,0,1.59,4.15,13.65,13.65,0,0,0,4.17,2.84,45.14,45.14,0,0,0,5.9,2.18c2.21.66,4.48,1.4,6.79,2.22a60.56,60.56,0,0,1,6.78,2.86,22.76,22.76,0,0,1,5.9,4.2,19.77,19.77,0,0,1,4.18,6.22,22.09,22.09,0,0,1,1.59,8.83,28.78,28.78,0,0,1-2,10.72,25,25,0,0,1-5.76,8.72,26.56,26.56,0,0,1-9.32,5.84,34.73,34.73,0,0,1-12.57,2.13,40.12,40.12,0,0,1-7.85-.79,47,47,0,0,1-7.76-2.24,44.5,44.5,0,0,1-7-3.44,29.61,29.61,0,0,1-5.74-4.43l5.68-9a5.56,5.56,0,0,1,1.78-1.62,4.63,4.63,0,0,1,2.42-.66,6.62,6.62,0,0,1,3.44,1.08q1.73,1.08,3.91,2.39a31.75,31.75,0,0,0,5,2.38,18.83,18.83,0,0,0,6.7,1.08c3.49,0,6.19-.76,8.12-2.3s2.9-4,2.9-7.29a7,7,0,0,0-1.59-4.72,12.42,12.42,0,0,0-4.18-3,38.43,38.43,0,0,0-5.87-2.09c-2.19-.61-4.45-1.28-6.76-2a50.91,50.91,0,0,1-6.75-2.72,21.27,21.27,0,0,1-5.88-4.26,19.82,19.82,0,0,1-4.17-6.59,26.11,26.11,0,0,1-1.59-9.73,23.12,23.12,0,0,1,1.87-9.09,23.53,23.53,0,0,1,5.51-7.89,27.15,27.15,0,0,1,8.91-5.53A32.94,32.94,0,0,1,777.54,363a46.22,46.22,0,0,1,7.41.59,39.6,39.6,0,0,1,6.84,1.76,38.48,38.48,0,0,1,6.05,2.78,28.78,28.78,0,0,1,5,3.67Z"/><path class="cls-2" d="M226.91,423.57c0,1.13-.92,15-16.19,14.87-16.66-.18-17.17-14-17.17-14.8,0-6.86-.28-20.66-.3-27.44,0-5.71,0-8.05-.07-13.8,0-4.63-.9-8.84-5.42-12.36-4.1-3.22-9.83-3.05-14.62-1.58-.24-.69-.48-1.37-.74-2a28.19,28.19,0,0,0-3.91-8,40.63,40.63,0,0,0-16.17-16.08c.77-.46,1.54-.88,2.35-1.3,9.39-4.83,19.6-5.58,29.91-5.08a44.56,44.56,0,0,1,41.17,35.29c1.09,5.24.89,10.45.93,15.75s.2,10.72.23,16.07C227,409.91,227.05,416.76,226.91,423.57Z"/><path class="cls-1" d="M172.6,366.41a28.68,28.68,0,0,0-3.74-8,39.77,39.77,0,0,0-15.47-16.08c-12-6.82-20.71-5.53-28-5.53H110c-.59,0-1.18,0-1.78.07H82.3a6.22,6.22,0,0,0-6.13,4.69,6.1,6.1,0,0,0,5.92,7.47h6.17l-.06.09a5.31,5.31,0,0,1,4.3,6.59,5.42,5.42,0,0,1-5.32,3.94H65.85a6.22,6.22,0,0,0-6.13,4.69,6.1,6.1,0,0,0,5.93,7.47H97.81a6,6,0,0,1,5.91,4.53,5.88,5.88,0,0,1-5.72,7.2H70.82a5.11,5.11,0,0,0-5.06,3.91,5,5,0,0,0,4.86,6h16A6,6,0,0,1,92.52,398a5.87,5.87,0,0,1-5.71,7.2H80.9a6.22,6.22,0,0,0-6.13,4.69,6.1,6.1,0,0,0,5.92,7.47H96.34a5.47,5.47,0,0,1,5.41,4.18A5.32,5.32,0,0,1,96.56,428H80.69a6.1,6.1,0,0,0-6.08,6.08h0a6.1,6.1,0,0,0,6.08,6.08h4a5.47,5.47,0,0,1,5.41,4.18,5.32,5.32,0,0,1-5.19,6.44H67.71a6.2,6.2,0,0,0-6.12,4.69A6.09,6.09,0,0,0,67.51,463H83.72v.16a5.29,5.29,0,0,1,1,10c0,.16.09.32.14.48H76.27a6.22,6.22,0,0,0-6.13,4.69,6.1,6.1,0,0,0,5.92,7.47h24.66c.11,0,.21,0,.31,0s.43,0,.65,0c10.59,0,17.94-8.42,17.94-18.77v-15.8l-.1-3.62c.34-16,10.55-14.23,10.58-14.23h0c1.14-.41,9-2.12,11.44-2.76a44.51,44.51,0,0,0,19.38-11.28c5.08-4.78,11.6-12.79,13.38-32.15C175.16,377.85,174,371.06,172.6,366.41Z"/><rect class="cls-1" x="57.19" y="337.04" width="12.84" height="11.89" rx="1.91"/><rect class="cls-1" x="50.19" y="383.83" width="9.68" height="9.68" rx="1.55"/><rect class="cls-1" x="56.17" y="474.86" width="9.68" height="9.68" rx="1.55"/><rect class="cls-1" x="52.98" y="428.64" width="10.92" height="10.92" rx="1.75" transform="translate(116.87 868.2) rotate(-180)"/></svg>