<svg width="232" height="182" viewBox="0 0 232 182" fill="none" xmlns="http://www.w3.org/2000/svg">
<path opacity="0.1" d="M81.3791 177.915C103.73 177.915 121.848 174.486 121.848 170.257C121.848 166.028 103.73 162.6 81.3791 162.6C59.0287 162.6 40.9102 166.028 40.9102 170.257C40.9102 174.486 59.0287 177.915 81.3791 177.915Z" fill="#2D9CDB"/>
<path opacity="0.1" d="M134.794 25.6759C119.921 25.1617 105.756 20.3642 92.2293 15.1169C78.7029 9.86949 65.3051 4.05744 50.7882 1.27766C41.4512 -0.510482 30.7721 -0.765276 23.2505 4.2296C16.0093 9.05002 13.6699 17.348 12.4128 25.0538C11.466 30.8521 10.9099 36.9557 13.5021 42.3844C15.3038 46.1535 18.4981 49.3212 20.7088 52.9319C28.4005 65.4926 22.9632 80.9822 14.6304 93.2467C10.7237 98.9991 6.18505 104.494 3.16768 110.612C0.150319 116.729 -1.24461 123.762 1.39587 130.02C4.01107 136.217 10.2457 140.863 16.9998 144.134C30.7169 150.78 46.8746 152.68 62.6417 153.759C97.5332 156.142 132.609 155.111 167.592 154.076C180.539 153.695 193.542 153.307 206.278 151.308C213.351 150.197 220.652 148.434 225.788 144.178C232.306 138.777 233.921 129.632 229.553 122.86C222.226 111.498 201.976 108.677 196.849 96.4856C194.031 89.7737 196.925 82.2998 201.022 76.0768C209.81 62.7243 224.538 51.0106 225.313 35.7506C225.846 25.2696 218.766 14.7725 207.818 9.81211C196.343 4.61294 180.429 5.26714 171.968 13.8727C163.246 22.7239 147.928 26.1327 134.794 25.6759Z" fill="#2D9CDB"/>
<path d="M122.971 83.1407L115.932 78.4006L119.482 73.1211L100.891 71.6405L94.2102 76.8007L85.8476 72.118L78.8729 72.9558L78.7902 71.1195C78.7039 69.2051 78.5113 67.2969 78.2134 65.4038C78.2432 64.83 78.2639 64.1712 78.2616 63.455C78.2616 60.4365 77.8526 56.4355 76.0555 53.7682L76.4691 50.0542L73.114 46.0946C73.6528 45.0225 74.2671 43.99 74.9524 43.0049C75.0673 42.8397 75.1822 42.679 75.3063 42.5229C79.6612 42.2084 83.0968 38.6321 83.0968 34.2593C83.0968 34.0573 83.0968 33.8553 83.0738 33.6556C83.0738 33.5753 83.0577 33.4926 83.0485 33.4123C83.4737 33.6418 83.9034 33.8714 84.3331 34.1009C84.4136 34.2157 84.5055 34.3305 84.6066 34.4659L84.6273 34.4911L84.756 34.6495L84.7973 34.6977C84.8433 34.7528 84.8916 34.8056 84.9398 34.8607L84.972 34.8974C85.0938 35.0329 85.2225 35.1706 85.3604 35.306C85.3768 35.3194 85.3922 35.3339 85.4063 35.3496L85.5787 35.5103L85.6269 35.5539C85.774 35.6848 85.9303 35.811 86.0866 35.9304L86.1371 35.9671L86.3347 36.1025L86.3991 36.1439C86.4749 36.1898 86.5531 36.238 86.6289 36.2816L86.6565 36.2977C86.7461 36.3459 86.838 36.3918 86.9299 36.4354L86.9759 36.4537C87.054 36.4874 87.1306 36.5195 87.2057 36.5502L87.277 36.5754C87.3574 36.6029 87.4355 36.6282 87.5183 36.6512L87.5688 36.6649C87.6699 36.6902 87.771 36.7108 87.8745 36.7269H87.8859C87.9833 36.7426 88.0815 36.7526 88.1801 36.7567H88.2467C88.3348 36.7613 88.423 36.7613 88.511 36.7567H88.5685C88.6787 36.7504 88.7884 36.7374 88.8971 36.7177C89.4113 36.6502 89.905 36.4733 90.3449 36.1989C90.4569 36.1241 90.5562 36.0319 90.639 35.9258C91.0986 35.3244 90.5931 34.6656 90.5931 34.6656C90.4138 34.2386 89.251 33.9379 89.251 33.9379C89.251 33.9379 85.5741 32.4046 85.5741 31.1834C85.5741 29.9622 84.6549 23.6268 75.1661 22.1784C75.1661 22.1784 68.9935 21.8318 67.2585 25.1326L67.2217 25.5183C66.7115 25.8373 66.2887 26.4778 65.7854 26.666C65.568 26.7126 65.3583 26.7899 65.1626 26.8955V26.8519C65.1045 26.9027 65.0569 26.9643 65.0225 27.0333C64.9144 27.2481 64.8495 27.4821 64.8317 27.7219C64.7799 28.0148 64.6781 28.2967 64.5307 28.5551C64.4896 28.6286 64.4435 28.6991 64.3928 28.7663V28.7663L64.3537 28.8283C64.6205 28.8491 64.8884 28.8058 65.1351 28.702C65.0962 29.0163 65.019 29.3247 64.9053 29.6202C65.0513 29.6249 65.1957 29.5876 65.3212 29.5128C65.4467 29.4379 65.548 29.3286 65.6131 29.1979V29.1795L65.6429 29.1382C65.7007 29.0319 65.7484 28.9205 65.7854 28.8053L65.7601 28.8329C65.8061 28.6837 65.8475 28.5322 65.898 28.3853C65.9212 28.3025 65.9594 28.2247 66.0106 28.1557C66.072 28.094 66.147 28.0475 66.2296 28.0199C66.3122 27.9924 66.4002 27.9847 66.4863 27.9973L66.3921 29.9875H66.4335C66.3781 30.1323 66.3105 30.272 66.2313 30.4053C65.9049 30.9332 65.312 31.2936 65.0937 31.872C64.9996 32.151 64.9636 32.4463 64.988 32.7397C64.988 32.9119 65.0087 33.0863 65.0225 33.2585V33.2447C65.0546 33.7038 65.0638 34.1399 64.8156 34.5095C64.6456 34.762 64.3721 34.9525 64.2779 35.2395C64.2518 35.3194 64.2402 35.4033 64.2434 35.4874C64.2619 35.7389 64.3144 35.9868 64.3997 36.2242C64.4007 36.2197 64.4007 36.215 64.3997 36.2104C64.457 36.3851 64.4704 36.5711 64.4388 36.7521C64.3353 37.2112 63.7769 37.5946 63.8045 38.033C63.8029 38.0907 63.8115 38.1482 63.8298 38.2029C63.9372 38.417 64.1233 38.5815 64.3491 38.662C64.7034 38.8632 65.1104 38.9528 65.5165 38.919C65.6688 38.8916 65.816 38.8413 65.9532 38.7698C65.7923 39.1394 65.6269 39.5044 65.4591 39.851C65.4338 39.9061 65.4062 39.9612 65.3787 40.0163C65.3787 40.0163 63.9585 39.0682 63.1518 41.001C62.9164 41.4027 62.7479 41.8399 62.6532 42.2956C62.6127 42.4779 62.5558 42.6562 62.4831 42.8282C62.125 43.4337 61.589 43.9146 60.948 44.2054C59.3026 44.9583 52.6566 53.238 52.5394 55.3819C52.4818 56.2188 52.3402 57.0478 52.1165 57.8564C51.5933 59.7606 51.4589 61.7504 51.7212 63.7075C51.8034 64.34 51.9394 64.9643 52.128 65.5737C52.8335 67.7153 53.3046 71.7117 53.3046 71.7117L54.0676 78.6485C54.0392 79.6059 54.0807 80.5641 54.1917 81.5155C53.4126 82.4038 50.285 86.1064 51.48 87.1141C52.3992 87.9083 54.0078 87.7775 54.911 87.6145C54.1503 89.4944 52.953 92.7631 52.7944 95.0081C52.5646 98.3296 53.1874 102.73 54.1733 104.419C55.1592 106.109 58.4454 110.443 58.4454 110.443C58.4454 110.443 58.2914 116.388 59.4657 118.548C60.64 120.708 61.1134 125.189 61.1134 125.189C61.1134 125.189 62.2096 128.971 61.6604 130.362C61.1112 131.753 62.6784 132.91 61.033 133.835C59.3876 134.76 57.2826 155.61 57.2826 155.61C57.2826 155.61 56.4346 169.275 57.2826 169.97C57.3279 170.003 57.3764 170.032 57.4274 170.055V174.646C57.4274 174.646 56.839 175.61 59.2313 175.805C60.8699 175.936 65.5143 176.232 68.2696 176.404L70.4045 176.537C70.4045 176.537 75.4603 177.543 77.694 176.537C79.9277 175.532 83.8873 175.555 83.299 172.899C83.221 172.538 83.1165 172.183 82.9865 171.836C82.3407 170.188 81.2445 170 79.2245 169.541C79.1073 169.516 78.9947 169.493 78.8913 169.474C76.7633 169.105 76.0647 170.094 74.872 168.806C73.8356 167.693 70.5355 166.447 69.4118 166.052C69.4394 165.969 69.4738 165.889 69.5014 165.804C69.1832 165.75 68.8872 165.606 68.6488 165.389L71.6938 165.581L73.5069 165.694C73.5069 165.694 77.8043 166.55 79.7117 165.694C81.6191 164.838 84.9743 164.861 84.4733 162.604C84.4073 162.297 84.319 161.994 84.209 161.7C83.6598 160.3 82.7268 160.146 81.0101 159.758C80.9113 159.737 80.8194 159.716 80.7275 159.7C78.9189 159.386 78.326 160.226 77.3125 159.133C76.4439 158.202 73.7023 157.157 72.7164 156.801C72.7164 156.292 72.027 155.566 71.5926 154.839C71.0825 153.989 72.0247 151.017 72.0247 151.017L72.5624 138.683C72.7672 138.592 72.9838 138.53 73.2059 138.5C73.2059 138.5 75.6372 136.181 75.088 133.711C74.9761 132.964 74.9177 132.21 74.9134 131.455C75.7131 130.714 76.8138 129.619 77.1264 128.944C77.6366 127.844 77.1264 122.517 77.1264 122.517V102.145L81.194 102.555L84.8847 102.934L86.0084 103.049L89.6991 103.421L98.1813 104.277L105.825 102.831L109.132 102.207L115.932 100.921V84.3022L122.971 83.1407ZM66.9873 28.0708L66.5139 28.0203C66.6702 28.0272 66.8356 28.057 66.9873 28.0708Z" fill="url(#paint0_linear)"/>
<path d="M106.476 93.9297C104.178 97.2144 95.9165 95.4745 95.9165 95.4745L89.5141 89.4903L88.6523 88.68L90.0978 85.6133C90.0978 85.6133 90.5574 85.7395 91.3457 85.9645C95.4845 87.165 108.416 91.1682 106.476 93.9297Z" fill="#EFB7B9"/>
<path opacity="0.1" d="M91.3411 85.9645C91.0584 86.9469 90.284 88.4183 89.5141 89.4903L88.6523 88.68L90.0978 85.6133C90.0978 85.6133 90.562 85.7395 91.3411 85.9645Z" fill="black"/>
<path d="M69.3839 51.3816C69.3839 51.3816 63.4825 53.9961 63.772 60.4164C63.9804 64.5527 64.4316 68.6732 65.1233 72.7567C65.1233 72.7567 63.9168 82.4182 68.9404 84.9088C73.964 87.3993 78.613 89.4469 78.613 89.4469C78.613 89.4469 86.4723 90.2916 87.449 90.6405C88.4257 90.9894 91.4775 85.6548 90.9145 84.8238C90.3515 83.9929 83.1378 82.2506 82.2186 80.8642C81.2994 79.4778 79.1737 78.6216 79.1737 78.6216C79.1737 78.6216 76.979 77.2948 76.8296 76.0966C76.6803 74.8984 77.2594 74.0054 77.4065 73.4798C77.5535 72.9541 77.9258 67.8789 77.9258 67.8789C77.9258 67.8789 80.4031 49.8138 69.3839 51.3816Z" fill="#DCE6F2"/>
<path opacity="0.1" d="M73.28 72.4922C73.28 72.4922 65.1838 73.8465 65.9675 76.6768C65.9675 76.6768 68.9067 73.6215 73.28 72.4922Z" fill="black"/>
<path opacity="0.1" d="M73.3379 73.6367C73.3379 73.6367 68.8865 77.2658 69.7575 77.4517C70.6285 77.6377 73.3379 73.6367 73.3379 73.6367Z" fill="black"/>
<path opacity="0.1" d="M75.4791 74.9043C75.4791 74.9043 74.2864 77.3443 75.0195 77.1791C75.7526 77.0138 75.4791 74.9043 75.4791 74.9043Z" fill="black"/>
<path opacity="0.1" d="M91.6449 86.2248L91.1531 86.0848C91.2933 85.6257 91.3324 85.2538 91.2174 85.0817C90.6544 84.2507 83.4454 82.5108 82.5284 81.122C81.6115 79.7333 79.4835 78.8794 79.4835 78.8794C79.4835 78.8794 77.2889 77.5526 77.1395 76.3544C76.9901 75.1562 77.5692 74.2633 77.7163 73.7376C77.8634 73.212 78.2357 68.1344 78.2357 68.1344C78.2357 68.1344 80.7061 50.0716 69.6868 51.6394C69.6868 51.6394 63.7854 54.2562 64.0727 60.6766C64.2811 64.813 64.7331 68.9335 65.4262 73.0168C65.4262 73.0168 64.2197 82.6783 69.2433 85.1689C74.2669 87.6594 78.9159 89.707 78.9159 89.707C78.9159 89.707 86.773 90.5494 87.752 90.9006C88.1219 91.0337 88.7907 90.3474 89.4456 89.404L89.8179 89.7506L96.2203 95.7325C96.2203 95.7325 104.482 97.4747 106.78 94.19C108.722 91.4263 95.7929 87.423 91.6449 86.2248Z" fill="black"/>
<path d="M65.985 27.287C65.76 27.3309 65.5445 27.414 65.3484 27.5326C65.1186 27.7231 65.1186 28.0491 65.0612 28.3337C64.9937 28.7296 64.8365 29.1049 64.6016 29.4309C64.8631 29.4501 65.1254 29.4068 65.3668 29.3047C65.3275 29.6188 65.2503 29.9271 65.137 30.2228C65.2802 30.2265 65.4214 30.1888 65.5437 30.1143C65.666 30.0398 65.7641 29.9316 65.8264 29.8028C65.948 29.5441 66.0442 29.2743 66.1137 28.9971C66.1353 28.9142 66.1727 28.8362 66.224 28.7675C66.4354 28.5173 66.8284 28.6298 67.1547 28.6619C67.4263 28.6848 67.699 28.6347 67.9447 28.5169C68.1904 28.399 68.4 28.2177 68.5519 27.9917C68.8989 27.466 68.9196 26.1209 68.0923 25.9786C67.2282 25.8363 66.6905 27.0253 65.985 27.287Z" fill="#965D7B"/>
<g opacity="0.1">
<path opacity="0.1" d="M65.3279 27.8127C65.3486 27.7002 65.3624 27.5832 65.3877 27.4707C65.1694 27.6612 65.1579 27.9849 65.1004 28.2718C65.0715 28.4374 65.0261 28.5996 64.9648 28.7561C65.1458 28.4681 65.2691 28.1477 65.3279 27.8127V27.8127Z" fill="black"/>
<path opacity="0.1" d="M65.4036 29.7072C65.518 29.4119 65.5952 29.1035 65.6334 28.7891C65.4033 28.8858 65.1542 28.929 64.9049 28.9153C64.8323 29.0768 64.7438 29.2305 64.6406 29.3744C64.9012 29.3945 65.1628 29.352 65.4036 29.2504C65.3654 29.5648 65.2882 29.8733 65.1738 30.1686C65.3169 30.172 65.458 30.1342 65.5802 30.0597C65.7025 29.9852 65.8007 29.8772 65.8632 29.7486C65.9205 29.6442 65.9667 29.5342 66.0011 29.4203C65.9337 29.5144 65.8436 29.5901 65.7391 29.6402C65.6347 29.6904 65.5193 29.7134 65.4036 29.7072V29.7072Z" fill="black"/>
<path opacity="0.1" d="M67.4227 28.1464C67.0964 28.1142 66.7011 28.0018 66.4897 28.252C66.4393 28.3212 66.402 28.399 66.3794 28.4815C66.3587 28.5412 66.3403 28.6032 66.3242 28.6651C66.5425 28.493 66.8964 28.5848 67.1929 28.6146C67.4644 28.6368 67.7369 28.5864 67.9824 28.4686C68.228 28.3508 68.4377 28.1699 68.5901 27.9444C68.6598 27.8329 68.7117 27.7113 68.7441 27.584C68.5867 27.7786 68.3839 27.9316 68.1535 28.0296C67.9231 28.1277 67.6722 28.1678 67.4227 28.1464Z" fill="black"/>
</g>
<path d="M72.9029 46.2441L76.4075 50.454L75.9502 54.7028L71.7148 48.0805L72.9029 46.2441Z" fill="#DCE6F2"/>
<path opacity="0.1" d="M76.4052 50.454L75.9755 54.4503L75.9479 54.7028L72.1262 48.7255L71.7148 48.0805L71.8343 47.8946L72.9006 46.2441L73.1373 46.5288L76.4052 50.454Z" fill="black"/>
<path d="M78.2279 40.5436C77.0421 40.8834 75.9092 42.0494 74.9233 43.4657C74.257 44.4429 73.661 45.4662 73.14 46.5278C72.816 47.1752 72.531 47.7972 72.2943 48.3389L72.1289 48.7246C71.729 49.668 71.5061 50.2993 71.5061 50.2993C71.5061 50.2993 62.4287 43.4818 63.865 43.0227C64.3476 42.8689 64.9819 41.836 65.6093 40.5345L65.6874 40.3692C66.085 39.5336 66.4756 38.6017 66.8226 37.7248C67.5327 35.9229 68.059 34.3574 68.059 34.3574C68.059 34.3574 81.8474 39.5107 78.2279 40.5436Z" fill="#EFB7B9"/>
<path d="M83.6562 33.9727C83.6562 33.9727 85.7521 37.7601 88.5672 37.2437C91.3823 36.7272 90.2241 35.2099 90.2241 35.2099L83.6562 33.9727Z" fill="#444053"/>
<path d="M79.6003 165.077C77.7435 165.924 73.5449 165.077 73.5449 165.077L71.7754 164.967C69.4773 164.82 65.6303 164.572 64.2699 164.462C62.2844 164.299 62.7715 163.486 62.7715 163.486V158.576L72.4051 156.139C72.4051 156.139 76.213 157.44 77.2563 158.576C78.2467 159.66 78.8259 158.827 80.5931 159.139C80.6804 159.155 80.7723 159.173 80.8688 159.196C82.5464 159.58 83.4565 159.731 83.9942 161.12C84.1023 161.412 84.1891 161.711 84.2539 162.015C84.7503 164.251 81.4548 164.235 79.6003 165.077Z" fill="#A36468"/>
<path opacity="0.1" d="M83.9942 161.122C83.649 161.337 83.2862 161.523 82.9095 161.677C81.6456 162.253 80.4437 162.956 79.166 163.5C77.8882 164.044 76.5117 164.432 75.1283 164.328C74.4044 164.276 73.6644 164.099 72.9727 164.305C72.5449 164.47 72.142 164.694 71.7754 164.969C69.4773 164.822 65.6303 164.574 64.2699 164.464C62.2844 164.301 62.7715 163.488 62.7715 163.488V162.914C62.8428 162.914 62.9232 162.894 63.0151 162.887C63.4907 162.879 63.9643 162.95 64.417 163.096C65.4143 163.367 66.4071 163.633 67.4045 163.899C67.4865 163.59 67.6307 163.301 67.8282 163.049C68.0257 162.797 68.2725 162.588 68.5535 162.435C69.1227 162.133 69.7617 161.986 70.4057 162.01C71.9523 162.031 73.4162 162.763 74.9605 162.836C75.3923 162.876 75.8269 162.803 76.2221 162.625C76.4336 162.52 76.6197 162.366 76.8265 162.249C77.1575 162.089 77.5073 161.971 77.8676 161.897C78.8803 161.646 79.8746 161.325 80.8436 160.938C81.1193 160.83 81.4411 160.635 81.4043 160.341C81.356 159.951 80.7424 159.905 80.5816 159.547C80.5532 159.482 80.5401 159.412 80.5433 159.342C80.5465 159.271 80.5659 159.202 80.6 159.141C80.6873 159.157 80.7792 159.175 80.8757 159.198C82.5464 159.581 83.4565 159.733 83.9942 161.122Z" fill="black"/>
<path d="M77.6337 175.818C75.4505 176.814 70.5097 175.818 70.5097 175.818L68.4299 175.696C65.7366 175.524 61.2002 175.237 59.5985 175.102C57.2613 174.909 57.8358 173.954 57.8358 173.954V168.167L69.1722 165.298C69.1722 165.298 73.6535 166.829 74.8806 168.167C76.0457 169.441 76.7191 168.461 78.808 168.828C78.9114 168.847 79.0194 168.87 79.132 168.895C81.1061 169.354 82.177 169.526 82.809 171.16C82.9369 171.504 83.0391 171.856 83.1146 172.214C83.6845 174.845 79.8169 174.824 77.6337 175.818Z" fill="#A36468"/>
<path opacity="0.1" d="M82.8044 171.162C82.3983 171.416 81.9717 171.635 81.5289 171.817C80.0421 172.494 78.6265 173.32 77.1235 173.961C75.6206 174.601 74.0005 175.056 72.3711 174.936C71.5208 174.874 70.6499 174.661 69.8433 174.909C69.3378 175.105 68.8622 175.371 68.4299 175.698C65.7366 175.526 61.2002 175.239 59.5985 175.104C57.2613 174.911 57.8358 173.956 57.8358 173.956V173.281C57.931 173.266 58.0269 173.255 58.1231 173.249C58.683 173.239 59.2406 173.322 59.7731 173.495L63.2869 174.44C63.3847 174.076 63.5561 173.735 63.7904 173.438C64.0247 173.142 64.3171 172.896 64.6496 172.716C65.3194 172.36 66.072 172.187 66.8305 172.216C68.6506 172.241 70.3718 173.102 72.1896 173.189C72.6958 173.235 73.2054 173.151 73.6695 172.944C73.92 172.817 74.1292 172.636 74.3819 172.501C74.7706 172.311 75.1823 172.172 75.6068 172.088C76.7919 171.789 77.9558 171.412 79.0907 170.958C79.4147 170.83 79.7939 170.6 79.7502 170.256C79.6928 169.797 78.9712 169.742 78.7805 169.319C78.7483 169.243 78.7337 169.161 78.7377 169.078C78.7416 168.995 78.7641 168.915 78.8034 168.842C78.9068 168.86 79.0149 168.883 79.1275 168.908C81.1015 169.349 82.1724 169.528 82.8044 171.162Z" fill="black"/>
<path d="M72.6909 136.111L72.0773 150.534C72.0773 150.534 71.1581 153.479 71.6568 154.321C72.1555 155.163 72.9966 156.004 72.6909 156.502C72.3853 157 68.7084 162.385 67.5203 160.319C66.3322 158.253 65.1602 149.301 65.1602 149.301L66.2563 138.244L72.6909 136.111Z" fill="#444053"/>
<path d="M75.3573 100.178L77.0624 102.455V122.26C77.0624 122.26 77.5611 127.539 77.0624 128.63C76.5637 129.72 74.0359 131.901 74.0359 131.901L71.9102 120.997L72.3698 109.463L75.3573 100.178Z" fill="#444053"/>
<path opacity="0.1" d="M72.6909 136.111L72.0773 150.534C72.0773 150.534 71.1581 153.479 71.6568 154.321C72.1555 155.163 72.9966 156.004 72.6909 156.502C72.3853 157 68.7084 162.385 67.5203 160.319C66.3322 158.253 65.1602 149.301 65.1602 149.301L66.2563 138.244L72.6909 136.111Z" fill="black"/>
<path opacity="0.1" d="M75.3573 100.178L77.0624 102.455V122.26C77.0624 122.26 77.5611 127.539 77.0624 128.63C76.5637 129.72 74.0359 131.901 74.0359 131.901L71.9102 120.997L72.3698 109.463L75.3573 100.178Z" fill="black"/>
<path d="M77.0542 91.7317V102.445L75.1399 110.784C75.1399 110.784 74.5264 130.908 75.0618 133.355C75.5973 135.802 73.2234 138.1 73.2234 138.1C73.2234 138.1 71.8445 138.253 71.8445 139.323C71.8445 140.393 69.5465 143.455 69.5465 143.455L69.6223 149.423C69.6223 149.423 70.6197 160.595 69.0868 162.737C67.554 164.878 69.6223 165.186 69.6223 165.186C67.708 171.459 58.5157 170.006 57.6861 169.318C56.8565 168.629 57.6861 155.086 57.6861 155.086C57.6861 155.086 59.7406 134.427 61.3492 133.509C62.9579 132.591 61.4274 131.443 61.9628 130.066C62.4983 128.688 61.4274 124.94 61.4274 124.94C61.4274 124.94 60.9678 120.5 59.8187 118.359C58.6697 116.217 58.8214 110.325 58.8214 110.325C58.8214 110.325 55.6041 106.039 54.6481 104.357C53.6921 102.674 53.0762 98.3127 53.306 95.0211C53.4623 92.7968 54.632 89.5579 55.3743 87.694C55.7305 86.8011 55.9878 86.2227 55.9878 86.2227L56.2062 86.28L68.7582 89.5625L77.0542 91.7317Z" fill="#444053"/>
<path opacity="0.1" d="M78.2279 40.5421C77.0421 40.8818 75.9092 42.0479 74.9233 43.4642H74.6659C73.2209 43.4652 71.8011 43.0852 70.5502 42.3625C69.2993 41.6398 68.2616 40.6001 67.5419 39.3485C67.2411 38.8299 66.9991 38.2794 66.8203 37.7073C67.5304 35.9053 68.0567 34.3398 68.0567 34.3398C68.0567 34.3398 81.8474 39.5092 78.2279 40.5421Z" fill="black"/>
<path d="M82.8804 34.8061C82.8824 36.0621 82.5958 37.3018 82.0426 38.4297C81.4894 39.5576 80.6844 40.5436 79.6896 41.3118C78.6948 42.0799 77.5368 42.6098 76.3047 42.8605C75.0725 43.1112 73.7993 43.076 72.5829 42.7578C71.3665 42.4395 70.2395 41.8466 69.2887 41.0247C68.3379 40.2028 67.5886 39.1739 67.0987 38.0172C66.6087 36.8605 66.391 35.6069 66.4625 34.353C66.534 33.099 66.8927 31.8782 67.5109 30.7845C67.76 30.3401 68.0508 29.9205 68.3796 29.5312C68.9215 28.8863 69.5585 28.3275 70.2686 27.8739C71.4681 27.1125 72.8448 26.675 74.2642 26.604C75.6836 26.533 77.0971 26.8311 78.3667 27.4689C79.6363 28.1068 80.7186 29.0628 81.5077 30.2434C82.2968 31.424 82.7658 32.7889 82.8689 34.2047C82.8735 34.4067 82.8804 34.6064 82.8804 34.8061Z" fill="#EFB7B9"/>
<path opacity="0.1" d="M75.9782 54.4494L75.9506 54.7019L72.1289 48.7337C71.729 49.6771 71.5061 50.3084 71.5061 50.3084C71.5061 50.3084 62.4287 43.4818 63.865 43.0227C64.3476 42.8689 64.9819 41.8359 65.6093 40.5344L65.6874 40.3691C66.3538 42.3524 70.2261 46.3166 71.837 47.9051C72.0232 48.0887 72.1771 48.2402 72.2966 48.3504L72.5425 48.5799L72.6712 48.7085C73.2572 49.3122 75.73 51.9749 75.9782 54.4494Z" fill="black"/>
<path d="M78.8291 74.6981L78.4109 88.1424L78.3373 90.5366C78.3373 90.5366 73.3827 90.0775 68.759 89.5725C65.0361 89.1662 61.527 88.7278 60.9869 88.4707C60.2975 88.147 58.8198 87.8968 57.6547 87.7384C56.7539 87.6168 56.0461 87.5525 56.0461 87.5525C56.0461 87.5525 55.7818 87.6306 55.375 87.704C54.488 87.8647 52.9299 87.9955 52.0222 87.2082C50.8616 86.2005 53.9112 82.5393 54.6718 81.6601L54.8396 81.4696L54.5523 78.8184L53.8055 71.9435C53.8055 71.9435 53.3458 67.9839 52.6564 65.8606C52.4721 65.2569 52.3391 64.6388 52.2589 64.0128C52.0027 62.0735 52.1339 60.1028 52.6449 58.2145C52.8633 57.4121 53.0018 56.5902 53.0586 55.7607C53.1735 53.6374 59.6655 45.4312 61.2742 44.6852C61.9978 44.3481 62.5801 43.7681 62.9196 43.0462C63.0317 42.8193 63.1158 42.5796 63.1701 42.3324C63.8595 39.3483 65.6037 40.5327 65.6037 40.5327C66.0243 42.8672 72.5347 49.0465 72.5347 49.0465L72.6634 49.1751C73.3092 49.8362 76.1864 52.9396 75.9818 55.5885C75.941 56.5744 76.0884 57.5591 76.4162 58.49C77.7404 62.655 78.5017 66.978 78.6798 71.3444L78.8291 74.6981Z" fill="#DCE6F2"/>
<path opacity="0.1" d="M69.6038 58.7324C69.6038 58.7324 67.9952 62.6347 66.7887 63.2659C65.5822 63.8972 70.1783 64.5973 69.6038 58.7324Z" fill="black"/>
<path opacity="0.1" d="M70.8214 66.0234C70.8214 66.0234 67.1445 66.4825 67.1445 67.1712C67.1445 67.8598 70.8214 66.0234 70.8214 66.0234Z" fill="black"/>
<path opacity="0.1" d="M74.6606 70.498C74.6606 70.498 69.3176 81.8605 67.8238 82.2048C66.3301 82.5491 74.6606 70.498 74.6606 70.498Z" fill="black"/>
<path opacity="0.1" d="M72.4366 49.6243L68.0174 51.5433L62.6836 43.4955C62.7957 43.2685 62.8798 43.0288 62.9341 42.7816C63.6235 39.7975 65.3677 40.982 65.3677 40.982C65.7883 43.3164 72.2987 49.4958 72.2987 49.4958L72.4366 49.6243Z" fill="black"/>
<path d="M72.6632 49.1614L68.244 51.0804L62.9102 43.0326C63.0222 42.8056 63.1063 42.5659 63.1606 42.3187C63.8501 39.3346 65.5943 40.5191 65.5943 40.5191C66.0148 42.8535 72.5253 49.0329 72.5253 49.0329L72.6632 49.1614Z" fill="#DCE6F2"/>
<path opacity="0.1" d="M78.3362 90.5378C78.3362 90.5378 73.3816 90.0787 68.7578 89.5737L77.0539 91.7429V94.2679C76.6908 94.5961 76.3759 94.766 76.1714 94.6787C75.2154 94.277 67.4135 93.0146 67.4135 93.0146C67.4135 93.0146 62.8817 90.7191 57.9914 87.9646C57.8727 87.8989 57.7576 87.8269 57.6467 87.7488C57.0765 87.3621 56.5851 86.8706 56.1989 86.3004C55.2958 84.9943 54.8545 83.3163 54.6638 81.6705C54.5566 80.7273 54.5166 79.7776 54.5443 78.8287C54.568 77.7528 54.6663 76.6798 54.8384 75.6174C54.3655 71.5027 54.1353 67.3638 54.149 63.2221C54.2065 56.7948 60.2389 54.4994 60.2389 54.4994C71.3271 53.5238 67.8892 71.4283 67.8892 71.4283C67.8892 71.4283 67.248 76.4782 67.0734 76.9947C66.8987 77.5112 66.2713 78.372 66.3564 79.5771C66.4414 80.7822 68.5602 82.2237 68.5602 82.2237C68.5602 82.2237 70.6285 83.1924 71.4811 84.627C72.1015 85.6852 76.1324 87.1199 78.4097 88.1436L78.3362 90.5378Z" fill="black"/>
<path opacity="0.1" d="M82.0521 29.71C82.0563 30.0881 81.9779 30.4625 81.8223 30.8072C81.7045 31.0885 81.5678 31.3615 81.4133 31.6244C81.1714 32.108 80.8281 32.5339 80.4067 32.8731C79.8758 33.2518 79.2048 33.3574 78.5682 33.5112C77.9317 33.665 77.2698 33.9106 76.9067 34.4523C76.71 34.8006 76.5783 35.1817 76.5184 35.5771C76.4575 35.9721 76.2996 36.346 76.0588 36.6651C75.9334 36.821 75.7597 36.9308 75.565 36.9773C75.3703 37.0239 75.1657 37.0045 74.9833 36.9222C74.7911 36.7928 74.6453 36.6054 74.5673 36.3874C74.3053 35.7975 74.2387 35.1433 74.133 34.5074C74.0273 33.8716 73.8779 33.2174 73.4872 32.7055C73.0965 32.1936 72.4048 31.8562 71.7912 32.0559C71.5859 32.1349 71.3986 32.2545 71.2406 32.4075C71.0827 32.5606 70.9573 32.7439 70.872 32.9465C70.7022 33.3522 70.5856 33.7781 70.525 34.2136C70.2401 35.7715 69.9038 37.3201 69.5162 38.8596C69.5043 38.9227 69.4784 38.9823 69.4403 39.034C69.3792 39.0949 69.2968 39.1295 69.2105 39.1304C68.6958 39.1993 68.2017 38.8389 67.6823 38.878C67.6288 38.8815 67.5757 38.89 67.5237 38.9032C66.684 37.4455 66.3133 35.7652 66.4616 34.09C66.61 32.4148 67.2704 30.8256 68.3533 29.5378L68.3947 29.5263C68.7402 29.4038 69.0541 29.2063 69.3139 28.9479C69.6457 28.6163 69.9529 28.2611 70.2332 27.8851L70.417 27.6556C70.9452 27.0199 71.5469 26.449 72.2095 25.9546C72.3904 25.8066 72.5978 25.6944 72.8208 25.6241C73.0116 25.587 73.2071 25.5808 73.3999 25.6057C74.1935 25.7009 74.9936 25.7308 75.7922 25.6953C76.3486 25.6079 76.9094 25.5512 77.4721 25.5254C78.9267 25.5667 80.1677 26.5928 81.0869 27.7175C81.581 28.2937 82.0222 28.9571 82.0521 29.71Z" fill="black"/>
<path d="M66.4414 31.0023C66.122 31.5257 65.5451 31.8815 65.3291 32.4553C65.012 33.2886 65.5474 34.3261 65.0557 35.0698C64.8925 35.32 64.6236 35.506 64.5317 35.7929C64.3754 36.2772 64.8029 36.7937 64.6926 37.2918C64.5823 37.7899 63.925 38.21 64.0997 38.6966C64.2029 38.9088 64.3839 39.0732 64.6052 39.1557C64.9534 39.3552 65.3542 39.4441 65.7543 39.4105C66.3816 39.3072 66.8481 38.692 67.4847 38.6461C68.0018 38.6094 68.4959 38.9675 69.0106 38.9009C69.0969 38.8979 69.1789 38.8627 69.2404 38.8022C69.2795 38.751 69.3055 38.6912 69.3163 38.6278C69.7023 37.0898 70.0394 35.5412 70.3274 33.9818C70.3861 33.5461 70.502 33.1201 70.6721 32.7147C70.7581 32.5125 70.8837 32.3295 71.0416 32.1765C71.1994 32.0236 71.3864 31.9037 71.5914 31.8241C72.2049 31.6267 72.8944 31.9618 73.2873 32.4737C73.6803 32.9856 73.8297 33.6398 73.9354 34.2756C74.0411 34.9114 74.1077 35.5656 74.3674 36.1556C74.4463 36.3744 74.5928 36.5625 74.7857 36.6927C75.1304 36.8924 75.5946 36.734 75.8589 36.4356C76.101 36.1163 76.259 35.7414 76.3185 35.3453C76.3784 34.9506 76.5101 34.5702 76.7069 34.2228C77.07 33.6811 77.7341 33.4355 78.3684 33.2817C79.0026 33.1279 79.6714 33.02 80.2068 32.6413C80.6276 32.3024 80.9709 31.8774 81.2134 31.3948C81.5535 30.8026 81.8706 30.1599 81.843 29.4781C81.8132 28.7344 81.3719 28.071 80.9008 27.4926C79.9816 26.3678 78.7384 25.3418 77.2837 25.3027C76.7209 25.3262 76.1599 25.383 75.6038 25.4726C74.8052 25.5085 74.005 25.4778 73.2115 25.3808C73.0186 25.3577 72.8232 25.3647 72.6324 25.4014C72.4092 25.4695 72.202 25.582 72.0234 25.732C71.3602 26.2255 70.7577 26.7957 70.2286 27.4306C69.8874 27.8824 69.5175 28.3118 69.1209 28.716C68.861 28.9748 68.5472 29.1731 68.2017 29.2968C67.9719 29.3611 67.7421 29.3152 67.5238 29.3863C66.8459 29.5998 66.7562 30.4835 66.4414 31.0023Z" fill="#965D7B"/>
<path opacity="0.1" d="M88.5672 37.2414C86.7288 37.5788 85.2051 36.0936 84.3618 35.0102C84.1027 34.6812 83.867 34.3345 83.6562 33.9727L89.9668 35.1617L90.2218 35.2099C90.2218 35.2099 91.3824 36.7272 88.5672 37.2414Z" fill="black"/>
<g opacity="0.1">
<path opacity="0.1" d="M64.6919 36.6295C64.7177 36.3293 64.672 36.0273 64.5587 35.748C64.5587 35.771 64.538 35.794 64.5311 35.8169C64.4322 36.1245 64.5655 36.4436 64.6506 36.7626C64.6688 36.7198 64.6827 36.6752 64.6919 36.6295V36.6295Z" fill="black"/>
<path opacity="0.1" d="M65.2367 32.8711C65.2131 33.1885 65.2192 33.5074 65.2551 33.8237C65.2787 33.5063 65.2725 33.1874 65.2367 32.8711Z" fill="black"/>
<path opacity="0.1" d="M81.199 30.7267C80.9572 31.2103 80.6139 31.6361 80.1925 31.9754C79.6616 32.3541 78.9929 32.4597 78.354 32.6135C77.7152 32.7673 77.0556 33.0129 76.6925 33.5546C76.4961 33.903 76.3645 34.2841 76.3042 34.6794C76.2443 35.0754 76.0863 35.4502 75.8445 35.7697C75.5803 36.0681 75.1161 36.2288 74.7713 36.0268C74.5785 35.8966 74.432 35.7085 74.3531 35.4897C74.0934 34.8998 74.0245 34.2479 73.9211 33.6097C73.8177 32.9716 73.6637 32.3197 73.273 31.8078C72.8823 31.2959 72.1906 30.9585 71.577 31.1582C71.3719 31.2375 71.1848 31.3572 71.0268 31.5102C70.8689 31.6632 70.7434 31.8464 70.6578 32.0488C70.4877 32.4542 70.3718 32.8803 70.3131 33.3159C70.0266 34.8753 69.6896 36.4239 69.3019 37.9619C69.2912 38.0253 69.2652 38.0852 69.2261 38.1363C69.1646 38.1968 69.0826 38.232 68.9963 38.235C68.4815 38.3016 67.9875 37.9435 67.4704 37.9802C66.8338 38.0262 66.3673 38.6413 65.7399 38.7423C65.3398 38.7782 64.9383 38.6892 64.5909 38.4875C64.4312 38.4189 64.2878 38.3172 64.1704 38.1891C64.1166 38.266 64.081 38.3541 64.0663 38.4468C64.0515 38.5394 64.0581 38.6342 64.0853 38.724C64.1866 38.9377 64.3683 39.1027 64.5909 39.183C64.9383 39.3847 65.3398 39.4737 65.7399 39.4378C66.3673 39.3368 66.8338 38.7217 67.4704 38.6758C67.9875 38.639 68.4815 38.9971 68.9963 38.9306C69.0826 38.9276 69.1646 38.8923 69.2261 38.8318C69.2652 38.7807 69.2912 38.7208 69.3019 38.6574C69.688 37.1271 70.0251 35.5784 70.3131 34.0114C70.3718 33.5758 70.4877 33.1497 70.6578 32.7443C70.7434 32.5419 70.8689 32.3588 71.0268 32.2058C71.1848 32.0527 71.3719 31.933 71.577 31.8537C72.1906 31.654 72.88 31.9914 73.273 32.5033C73.666 33.0152 73.8154 33.6694 73.9211 34.3052C74.0268 34.9411 74.0934 35.5953 74.3531 36.1852C74.432 36.404 74.5785 36.5921 74.7713 36.7223C75.1161 36.922 75.5803 36.7637 75.8445 36.4652C76.0863 36.1457 76.2443 35.7709 76.3042 35.3749C76.3645 34.9796 76.4961 34.5985 76.6925 34.2502C77.0556 33.7084 77.7198 33.4651 78.354 33.309C78.9883 33.1529 79.657 33.0496 80.1925 32.6709C80.6139 32.3317 80.9572 31.9058 81.199 31.4222C81.5392 30.8322 81.8563 30.1895 81.8287 29.5078C81.8242 29.4201 81.815 29.3328 81.8011 29.2461C81.6903 29.7715 81.4864 30.2729 81.199 30.7267V30.7267Z" fill="black"/>
</g>
<path opacity="0.1" d="M81.8386 30.7987C82.4279 31.8453 82.7772 33.0096 82.8612 34.2074C80.8136 33.0597 78.8878 31.7995 77.9158 31.3611C76.2221 30.5967 69.8886 30.7115 67.5078 30.7826C67.7569 30.3383 68.0477 29.9186 68.3765 29.5293C68.9205 28.8839 69.5598 28.3251 70.2724 27.872C71.2161 27.2738 72.272 26.8741 73.3756 26.6973C74.4792 26.5206 75.6073 26.5705 76.6909 26.844C77.7745 27.1174 78.7909 27.6088 79.678 28.288C80.5651 28.9672 81.3041 29.8199 81.8501 30.7941L81.8386 30.7987Z" fill="black"/>
<path opacity="0.1" d="M89.1417 36.2681C88.0364 36.6078 86.2324 35.9513 84.3618 35.0102C84.1027 34.6812 83.867 34.3345 83.6562 33.9727L89.9668 35.1617C90.385 35.4463 90.4907 35.8526 89.1417 36.2681Z" fill="black"/>
<path d="M75.155 22.8405C75.155 22.8405 69.1225 22.4962 67.4266 25.7672L67.1531 28.6663L66.6935 28.6158L66.6016 30.5876C66.6016 30.5876 75.8214 30.1859 77.9196 31.1316C80.0177 32.0773 86.5373 36.8427 89.1502 36.0393C91.7631 35.2359 88.9204 34.4898 88.9204 34.4898C88.9204 34.4898 85.3239 32.968 85.3239 31.7743C85.3239 30.5807 84.4323 24.2751 75.155 22.8405Z" fill="#444053"/>
<path opacity="0.1" d="M63.5195 130.314C63.5195 130.314 67.3688 134.045 69.0349 133.758C69.0349 133.758 64.3239 133.356 63.5195 130.314Z" fill="black"/>
<path opacity="0.1" d="M62.7188 132.041C62.7188 132.041 63.0635 133.96 63.9827 133.772C64.9019 133.584 62.7188 132.041 62.7188 132.041Z" fill="black"/>
<path opacity="0.1" d="M68.7495 164.112C68.7495 164.112 63.2847 168.359 64.2063 168.474C65.1278 168.588 68.7495 164.112 68.7495 164.112Z" fill="black"/>
<path d="M76.0586 79.8313L93.7537 76.9551V93.6888L76.9411 92.8097L76.0586 79.8313Z" fill="#2D9CDB"/>
<path opacity="0.05" d="M76.0586 79.8313L93.7537 76.9551V93.6888L76.9411 92.8097L76.0586 79.8313Z" fill="black"/>
<path d="M93.75 76.9551L114.97 78.5412L113.796 93.1035L93.75 93.6888V76.9551Z" fill="#2D9CDB"/>
<path opacity="0.1" d="M93.75 76.9551L114.97 78.5412L113.796 93.1035L93.75 93.6888V76.9551Z" fill="black"/>
<path d="M100.274 71.8496L93.75 76.957L114.97 78.5431L118.438 73.3164L100.274 71.8496Z" fill="#2D9CDB"/>
<path d="M69.6523 74.2518L85.5826 72.3145L93.7545 76.9535L76.0594 79.8297L69.6523 74.2518Z" fill="#2D9CDB"/>
<path d="M97.6329 81.3011V104.18L89.3437 103.33L85.7381 102.963L84.6396 102.848L81.0362 102.479L76.0586 101.969V79.832L93.7514 81.0348L97.6329 81.3011Z" fill="#2D9CDB"/>
<path d="M114.974 78.541V100.853L108.33 102.127L105.099 102.746L97.6328 104.179V81.3001L114.974 78.541Z" fill="#2D9CDB"/>
<path opacity="0.05" d="M114.974 78.541V100.853L108.33 102.127L105.099 102.746L97.6328 104.179V81.3001L114.974 78.541Z" fill="black"/>
<path d="M69.6523 84.6479L76.0594 79.832L97.6336 81.3011L94.4577 86.6449L69.6523 84.6479Z" fill="#2D9CDB"/>
<path opacity="0.1" d="M69.6523 84.6479L76.0594 79.832L97.6336 81.3011L94.4577 86.6449L69.6523 84.6479Z" fill="white"/>
<path d="M114.974 78.541L97.6328 81.3001L103.277 86.3501L121.852 83.2375L114.974 78.541Z" fill="#2D9CDB"/>
<path opacity="0.1" d="M114.974 78.541L97.6328 81.3001L103.277 86.3501L121.852 83.2375L114.974 78.541Z" fill="white"/>
<path opacity="0.1" d="M108.333 102.125L105.102 102.745V97.9769L108.128 97.2148L108.333 102.125Z" fill="white"/>
<path opacity="0.1" d="M89.3439 100.178V103.332L85.7383 102.964V100.178H89.3439Z" fill="white"/>
<path opacity="0.1" d="M84.6385 101.168V102.846L81.0352 102.476V101.168H84.6385Z" fill="white"/>
<path opacity="0.1" d="M95.4589 98.5001C92.9885 101.656 84.8303 99.4757 84.8303 99.4757L78.768 93.1586L77.9453 92.3024L79.554 89.3184C79.554 89.3184 80.0136 89.4699 80.7811 89.7361C84.8441 91.1547 97.5386 95.8443 95.4589 98.5001Z" fill="black"/>
<path d="M95.2323 98.0431C92.7619 101.199 84.6038 99.0186 84.6038 99.0186L78.5415 92.7016L77.7188 91.8454L79.3274 88.8613C79.3274 88.8613 79.787 89.0128 80.5546 89.2791C84.6175 90.6977 97.3121 95.3872 95.2323 98.0431Z" fill="#EFB7B9"/>
<path opacity="0.1" d="M80.5468 89.2791C80.2112 90.2432 79.3587 91.6709 78.5336 92.7016L77.7109 91.8454L79.3196 88.8613C79.3196 88.8613 79.7815 89.0128 80.5468 89.2791Z" fill="black"/>
<path d="M60.4733 53.5804C60.4733 53.5804 54.4408 55.8758 54.3834 62.303C54.3697 66.4447 54.5999 70.5837 55.0728 74.6984C55.0728 74.6984 53.3493 84.2818 58.2327 87.0364C63.116 89.7909 67.6547 92.0863 67.6547 92.0863C67.6547 92.0863 75.4567 93.3488 76.415 93.7505C77.3733 94.1522 80.7032 88.9875 80.1861 88.1267C79.669 87.2659 72.5657 85.1426 71.7223 83.708C70.8789 82.2733 68.8015 81.307 68.8015 81.307C68.8015 81.307 66.6826 79.8631 66.5976 78.658C66.5126 77.4529 67.1377 76.5921 67.3146 76.0756C67.4916 75.5592 68.1327 70.5092 68.1327 70.5092C68.1327 70.5092 71.5614 52.5933 60.4733 53.5804Z" fill="#DCE6F2"/>
<path opacity="0.1" d="M63.229 74.8594C63.229 74.8594 55.0709 75.7775 55.7029 78.6468C55.7029 78.6468 58.803 75.7523 63.229 74.8594Z" fill="black"/>
<path opacity="0.1" d="M63.2361 76.0078C63.2361 76.0078 58.6055 79.3936 59.4558 79.6231C60.3061 79.8527 63.2361 76.0078 63.2361 76.0078Z" fill="black"/>
<path opacity="0.1" d="M65.2993 77.3828C65.2993 77.3828 63.978 79.7563 64.7248 79.6323C65.4717 79.5084 65.2993 77.3828 65.2993 77.3828Z" fill="black"/>
<path d="M150.248 25.9039C150.248 25.9039 141.516 25.3782 142.536 31.4979C142.536 31.4979 142.332 32.579 143.313 33.0702C143.313 33.0702 143.329 32.6111 144.209 32.7695C144.522 32.8222 144.841 32.8376 145.158 32.8154C145.588 32.7868 145.996 32.6183 146.321 32.3357V32.3357C146.321 32.3357 148.778 31.3234 149.734 27.311C149.734 27.311 150.441 26.4341 150.423 26.2092L148.948 26.8404C148.948 26.8404 149.451 27.9032 149.053 28.7869C149.053 28.7869 149.007 26.8794 148.722 26.9231C148.665 26.9231 147.957 27.2926 147.957 27.2926C147.957 27.2926 148.824 29.1427 148.169 30.4902C148.169 30.4902 148.417 28.2085 147.686 27.4258L146.647 28.0317C146.647 28.0317 147.661 29.9438 146.974 31.5047C146.974 31.5047 147.151 29.1106 146.429 28.1787L145.487 28.9109C145.487 28.9109 146.44 30.7978 145.859 32.0924C145.859 32.0924 145.783 29.3057 145.282 29.0945C145.282 29.0945 144.46 29.8199 144.335 30.1183C144.335 30.1183 144.986 31.4956 144.581 32.2094C144.581 32.2094 144.333 30.3524 144.122 30.3433C144.122 30.3433 143.301 31.5736 143.216 32.4091C143.256 31.6302 143.499 30.8752 143.922 30.2193C143.449 30.3087 143.013 30.5345 142.667 30.8689C142.667 30.8689 142.793 29.9989 144.124 29.9232C144.124 29.9232 144.813 28.9889 144.983 28.9316C144.983 28.9316 143.66 28.8214 142.858 29.1772C142.858 29.1772 143.563 28.3577 145.227 28.7181L146.146 27.9606C146.146 27.9606 144.404 27.731 143.664 27.9858C143.664 27.9858 144.515 27.2605 146.397 27.7884L147.408 27.1847C147.408 27.1847 145.923 26.8634 145.039 26.9804C145.039 26.9804 145.972 26.4777 147.704 27.0218L148.428 26.6981C148.428 26.6981 147.339 26.4846 147.022 26.4502C146.705 26.4158 146.686 26.3285 146.686 26.3285C147.375 26.214 148.083 26.2935 148.729 26.5581C148.729 26.5581 150.281 26.0003 150.248 25.9039Z" fill="#2D9CDB"/>
<path opacity="0.1" d="M176.78 56.5113C176.78 56.5113 168.047 55.9856 169.067 62.1053C169.067 62.1053 168.863 63.1864 169.844 63.6777C169.844 63.6777 169.86 63.2186 170.743 63.377C171.056 63.4297 171.375 63.4451 171.692 63.4229C172.116 63.3921 172.52 63.2246 172.841 62.9454V62.9454C172.841 62.9454 175.3 61.9308 176.256 57.9184C176.256 57.9184 176.961 57.0438 176.934 56.8189L175.458 57.4478C175.458 57.4478 175.961 58.5106 175.566 59.3944C175.566 59.3944 175.518 57.4869 175.235 57.5305C175.178 57.5305 174.468 57.9 174.468 57.9C174.468 57.9 175.336 59.7525 174.681 61.0976C174.681 61.0976 174.93 58.8159 174.197 58.0332L173.169 58.6323C173.169 58.6323 174.183 60.5444 173.496 62.1053C173.496 62.1053 173.673 59.7111 172.951 58.7792L172.011 59.5137C172.011 59.5137 172.963 61.3983 172.383 62.6929C172.383 62.6929 172.308 59.9063 171.807 59.6951C171.807 59.6951 170.984 60.4204 170.857 60.7188C170.857 60.7188 171.51 62.0961 171.106 62.81C171.106 62.81 170.857 60.953 170.646 60.9438C170.646 60.9438 169.826 62.1741 169.741 63.0097C169.782 62.2306 170.026 61.4758 170.448 60.8198C169.975 60.9094 169.538 61.1352 169.191 61.4694C169.191 61.4694 169.32 60.5995 170.651 60.5237C170.651 60.5237 171.329 59.5895 171.51 59.5321C171.51 59.5321 170.186 59.4219 169.384 59.7777C169.384 59.7777 170.09 58.9582 171.751 59.3301L172.671 58.5726C172.671 58.5726 170.926 58.3431 170.189 58.5979C170.189 58.5979 171.039 57.8725 172.921 58.4004L173.932 57.7967C173.932 57.7967 172.445 57.4777 171.561 57.5924C171.561 57.5924 172.496 57.0897 174.229 57.6338L174.953 57.3101C174.953 57.3101 173.863 57.0966 173.544 57.0622C173.224 57.0278 173.208 56.9405 173.208 56.9405C173.898 56.8259 174.606 56.9054 175.254 57.1701C175.254 57.1701 176.807 56.6077 176.78 56.5113Z" fill="#2D9CDB"/>
<path opacity="0.1" d="M123.726 51.0768C123.726 51.0768 125.737 42.563 119.523 42.5332C119.523 42.5332 118.491 42.1476 117.841 43.029C117.841 43.029 118.284 43.1231 117.983 43.9633C117.879 44.2603 117.81 44.5684 117.776 44.8814C117.732 45.3081 117.828 45.7377 118.05 46.1049V46.1049C118.05 46.1049 118.631 48.6988 122.416 50.3239C122.416 50.3239 123.161 51.1686 123.386 51.1778L123.018 49.6192C123.018 49.6192 121.883 49.9337 121.079 49.3897C121.079 49.3897 122.97 49.6674 122.972 49.3897C122.972 49.3323 122.742 48.5725 122.742 48.5725C122.742 48.5725 120.768 49.1096 119.55 48.2351C119.55 48.2351 121.759 48.8686 122.657 48.2833L122.244 47.1539C122.244 47.1539 120.175 47.8265 118.76 46.8831C118.76 46.8831 121.092 47.4661 122.136 46.9152L121.573 45.8639C121.573 45.8639 119.55 46.4791 118.371 45.6871C118.371 45.6871 121.129 46.0865 121.428 45.632C121.428 45.632 120.853 44.6978 120.58 44.5233C120.58 44.5233 119.118 44.9319 118.475 44.4109C118.475 44.4109 120.348 44.482 120.391 44.2846C120.391 44.2846 119.318 43.2677 118.5 43.0382C119.263 43.2116 119.967 43.5802 120.543 44.1079C120.535 43.6268 120.386 43.1586 120.116 42.7605C120.116 42.7605 120.952 43.0359 120.805 44.3673C120.805 44.3673 121.609 45.1936 121.635 45.3818C121.635 45.3818 121.968 44.0987 121.754 43.2471C121.754 43.2471 122.444 44.0826 121.793 45.655L122.382 46.6994C122.382 46.6994 122.915 45.0238 122.779 44.2525C122.779 44.2525 123.351 45.212 122.508 46.9749L122.933 48.0744C122.933 48.0744 123.501 46.665 123.537 45.779C123.537 45.779 123.875 46.7844 123.041 48.3981L123.239 49.1647C123.239 49.1647 123.634 48.1295 123.721 47.8219C123.809 47.5143 123.898 47.512 123.898 47.512C123.895 48.2103 123.697 48.8939 123.326 49.4861C123.326 49.4861 123.627 51.0883 123.726 51.0768Z" fill="#2D9CDB"/>
<path opacity="0.1" d="M104.599 53.9785C104.599 53.9785 97.5857 48.738 95.0785 54.4146C95.0785 54.4146 94.3132 55.2066 94.8625 56.1546C94.8625 56.1546 95.1245 55.785 95.7817 56.3979C96.0145 56.6142 96.2722 56.8022 96.5493 56.958C96.9246 57.1667 97.3579 57.2473 97.7833 57.1875V57.1875C97.7833 57.1875 100.394 57.6902 103.4 54.8645C103.4 54.8645 104.473 54.5202 104.574 54.3182L102.991 54.0405C102.991 54.0405 102.825 55.2043 102.009 55.7253C102.009 55.7253 103.018 54.1047 102.756 53.9877C102.703 53.9624 101.913 53.8729 101.913 53.8729C101.913 53.8729 101.619 55.8975 100.332 56.6619C100.332 56.6619 101.796 54.8921 101.614 53.8362L100.412 53.7719C100.412 53.7719 100.208 55.9273 98.7738 56.8547C98.7738 56.8547 100.238 54.9518 100.153 53.7765L98.9622 53.8729C98.9622 53.8729 98.7209 55.9686 97.5236 56.7307C97.5236 56.7307 98.9921 54.3618 98.6911 53.9119C98.6911 53.9119 97.6041 54.0657 97.3352 54.2448C97.3352 54.2448 97.1261 55.746 96.3907 56.127C96.3907 56.127 97.2065 54.4399 97.041 54.3228C97.041 54.3228 95.6783 54.899 95.1428 55.5555C95.606 54.9269 96.2255 54.43 96.9399 54.1139C96.4954 53.9294 96.0067 53.8783 95.5335 53.967C95.5335 53.967 96.1172 53.3105 97.2709 53.9785C97.2709 53.9785 98.3509 53.5722 98.5348 53.6227C98.5348 53.6227 97.4892 52.8032 96.6228 52.6609C96.6228 52.6609 97.6661 52.3625 98.8496 53.5791L100.042 53.4574C100.042 53.4574 98.7163 52.3097 97.9557 52.1169C97.9557 52.1169 99.0656 51.9769 100.346 53.4505L101.522 53.5033C101.522 53.5033 100.458 52.4199 99.6562 52.0297C99.6562 52.0297 100.711 52.1215 101.86 53.5286L102.644 53.6548C102.644 53.6548 101.851 52.879 101.603 52.677C101.355 52.475 101.389 52.3901 101.389 52.3901C102.028 52.6728 102.576 53.1274 102.972 53.703C102.972 53.703 104.57 54.0726 104.599 53.9785Z" fill="#2D9CDB"/>
<path opacity="0.1" d="M127.951 5.29007C127.951 5.29007 120.937 0.0472861 118.43 5.7262C118.43 5.7262 117.665 6.51813 118.214 7.46614C118.214 7.46614 118.476 7.09658 119.133 7.70946C119.367 7.92467 119.626 8.11187 119.903 8.26725C120.278 8.47617 120.712 8.55678 121.137 8.49679V8.49679C121.137 8.49679 123.748 8.9995 126.754 6.17152C126.754 6.17152 127.827 5.8295 127.926 5.6252L126.342 5.35204C126.342 5.35204 126.179 6.51583 125.361 7.0369C125.361 7.0369 126.372 5.41632 126.11 5.29925C126.057 5.274 125.267 5.18448 125.267 5.18448C125.267 5.18448 124.963 7.21364 123.677 7.97343C123.677 7.97343 125.138 6.20365 124.959 5.14775L123.757 5.08348C123.757 5.08348 123.55 7.23889 122.118 8.16396C122.118 8.16396 123.582 6.26104 123.497 5.08577L122.309 5.18218C122.309 5.18218 122.066 7.28021 120.868 8.0423C120.868 8.0423 122.339 5.67341 122.038 5.2235C122.038 5.2235 120.951 5.37729 120.682 5.55634C120.682 5.55634 120.473 7.05756 119.738 7.4386C119.738 7.4386 120.553 5.75145 120.388 5.63209C120.388 5.63209 119.025 6.21054 118.49 6.86703C118.952 6.23779 119.572 5.74073 120.287 5.4255C119.842 5.23958 119.352 5.18849 118.878 5.27859C118.878 5.27859 119.464 4.6221 120.618 5.29007C120.618 5.29007 121.698 4.88148 121.882 4.93427C121.882 4.93427 120.836 4.1148 119.97 3.97019C119.97 3.97019 121.011 3.67408 122.194 4.88837L123.387 4.76671C123.387 4.76671 122.063 3.61899 121.3 3.42388C121.3 3.42388 122.41 3.28615 123.693 4.75982L124.869 4.81032C124.869 4.81032 123.805 3.72687 123.001 3.33895C123.001 3.33895 124.058 3.43076 125.207 4.83787L125.988 4.96411C125.988 4.96411 125.193 4.19744 124.945 4.00003C124.697 3.80262 124.731 3.7154 124.731 3.7154C125.371 3.99787 125.919 4.45248 126.315 5.02839C126.315 5.02839 127.912 5.37729 127.951 5.29007Z" fill="#2D9CDB"/>
<path opacity="0.1" d="M154.749 11.9326C154.749 11.9326 151.945 3.64377 146.657 6.901C146.657 6.901 145.577 7.13054 145.492 8.21169C145.492 8.21169 145.917 8.0556 146.106 8.92787C146.176 9.23815 146.281 9.53932 146.421 9.82539C146.611 10.2104 146.92 10.5236 147.303 10.7183V10.7183C147.303 10.7183 149.169 12.612 153.25 11.9854C153.25 11.9854 154.328 12.3113 154.526 12.1989L153.377 11.0718C153.377 11.0718 152.582 11.9372 151.612 11.9028C151.612 11.9028 153.365 11.1407 153.221 10.8951C153.191 10.8469 152.591 10.3258 152.591 10.3258C152.591 10.3258 151.198 11.8247 149.705 11.726C149.705 11.726 151.913 11.0971 152.363 10.1192L151.412 9.38696C151.412 9.38696 150.019 11.0443 148.312 10.9938C148.312 10.9938 150.61 10.2569 151.191 9.23775L150.157 8.64324C150.157 8.64324 148.778 10.234 147.349 10.1835C147.349 10.1835 149.904 9.0656 149.911 8.52387C149.911 8.52387 148.93 8.03495 148.606 8.03035C148.606 8.03035 147.581 9.14823 146.768 9.04723C146.768 9.04723 148.395 8.11758 148.326 7.92706C148.326 7.92706 146.878 7.63095 146.062 7.86967C146.8 7.61306 147.592 7.55371 148.36 7.69751C148.098 7.29328 147.723 6.9742 147.282 6.77934C147.282 6.77934 148.137 6.57046 148.709 7.77326C148.709 7.77326 149.831 8.05101 149.95 8.19562C149.95 8.19562 149.555 6.93084 148.923 6.32025C148.923 6.32025 149.95 6.66686 150.231 8.34483L151.283 8.91869C151.283 8.91869 150.849 7.21777 150.325 6.62325C150.325 6.62325 151.32 7.13743 151.536 9.07707L152.478 9.78636C152.478 9.78636 152.216 8.28974 151.775 7.51388C151.775 7.51388 152.593 8.18874 152.74 9.99984L153.313 10.5462C153.313 10.5462 153.101 9.45812 153.014 9.15053C152.926 8.84294 152.998 8.82228 152.998 8.82228C153.363 9.41775 153.556 10.1026 153.556 10.8009C153.556 10.8009 154.668 11.9923 154.749 11.9326Z" fill="#2D9CDB"/>
<path opacity="0.1" d="M136.454 12.3385C136.454 12.3385 127.745 11.3698 128.464 17.5422C128.464 17.5422 128.204 18.6119 129.154 19.1491C129.154 19.1491 129.193 18.69 130.073 18.8966C130.384 18.9634 130.701 18.995 131.02 18.9907C131.449 18.9829 131.865 18.8354 132.203 18.5706V18.5706C132.203 18.5706 134.71 17.6823 135.88 13.7226C135.88 13.7226 136.629 12.8848 136.613 12.6575L135.108 13.213C135.108 13.213 135.567 14.2988 135.108 15.1619C135.108 15.1619 135.156 13.2544 134.878 13.2842C134.821 13.2842 134.094 13.6147 134.094 13.6147C134.094 13.6147 134.867 15.5085 134.145 16.8284C134.145 16.8284 134.508 14.5605 133.816 13.7433L132.748 14.2942C132.748 14.2942 133.667 16.2568 132.897 17.781C132.897 17.781 133.196 15.3983 132.522 14.4319L131.546 15.1206C131.546 15.1206 132.401 17.051 131.755 18.3158C131.755 18.3158 131.822 15.5291 131.332 15.2927C131.332 15.2927 130.473 15.9813 130.332 16.266C130.332 16.266 130.914 17.6662 130.475 18.3663C130.475 18.3663 130.321 16.5001 130.119 16.4817C130.119 16.4817 129.236 17.6685 129.108 18.5063C129.187 17.7296 129.469 16.9872 129.926 16.3532C129.449 16.419 129.002 16.6225 128.639 16.9385C128.639 16.9385 128.809 16.0778 130.142 16.0686C130.142 16.0686 130.866 15.1711 131.061 15.1229C131.061 15.1229 129.744 14.9461 128.924 15.2606C128.924 15.2606 129.671 14.4755 131.311 14.9323L132.279 14.223C132.279 14.223 130.53 13.8695 129.79 14.0991C129.79 14.0991 130.677 13.4105 132.529 14.0417L133.57 13.4885C133.57 13.4885 132.102 13.0937 131.213 13.1648C131.213 13.1648 132.171 12.7058 133.874 13.3416L134.614 13.0547C134.614 13.0547 133.536 12.7861 133.219 12.7356C132.902 12.6851 132.89 12.5979 132.89 12.5979C133.585 12.5182 134.288 12.6327 134.922 12.9284C134.922 12.9284 136.471 12.4349 136.454 12.3385Z" fill="#2D9CDB"/>
<path opacity="0.1" d="M212.653 79.862C212.653 79.862 203.948 78.8933 204.667 85.0589C204.667 85.0589 204.408 86.1286 205.357 86.6657C205.357 86.6657 205.396 86.2066 206.276 86.4109C206.587 86.48 206.904 86.5116 207.223 86.505C207.653 86.4984 208.069 86.3508 208.406 86.0849V86.0849C208.406 86.0849 210.913 85.1966 212.072 81.2393C212.072 81.2393 212.821 80.3991 212.805 80.1742L211.299 80.7274C211.299 80.7274 211.759 81.8154 211.299 82.6785C211.299 82.6785 211.348 80.7687 211.07 80.8008C211.012 80.8008 210.286 81.1291 210.286 81.1291C210.286 81.1291 211.058 83.0228 210.337 84.3427C210.337 84.3427 210.7 82.0771 210.008 81.2576L208.939 81.8108C208.939 81.8108 209.859 83.7734 209.091 85.2976C209.091 85.2976 209.387 82.9149 208.714 81.9463L207.737 82.6349C207.737 82.6349 208.592 84.5654 207.947 85.8278C207.947 85.8278 208.013 83.0412 207.524 82.8071C207.524 82.8071 206.667 83.4957 206.524 83.7803C206.524 83.7803 207.108 85.1805 206.667 85.8806C206.667 85.8806 206.513 84.0145 206.31 83.9961C206.31 83.9961 205.428 85.1828 205.299 86.0207C205.379 85.2439 205.661 84.5015 206.117 83.8676C205.64 83.9322 205.193 84.1358 204.83 84.4529C204.83 84.4529 205 83.5898 206.333 83.5806C206.333 83.5806 207.06 82.6831 207.253 82.6372C207.253 82.6372 205.936 82.4582 205.115 82.7726C205.115 82.7726 205.862 81.9899 207.505 82.4467L208.471 81.7374C208.471 81.7374 206.742 81.4114 205.991 81.6364C205.991 81.6364 206.878 80.9478 208.73 81.5767L209.771 81.0258C209.771 81.0258 208.303 80.631 207.413 80.7021C207.413 80.7021 208.372 80.2431 210.075 80.8789L210.815 80.5897C210.815 80.5897 209.737 80.3211 209.42 80.2729C209.103 80.2247 209.091 80.1352 209.091 80.1352C209.786 80.0541 210.489 80.1678 211.123 80.4634C211.123 80.4634 212.676 79.9607 212.653 79.862Z" fill="#2D9CDB"/>
<path opacity="0.1" d="M225.966 87.9867C225.966 87.9867 217.26 87.0203 217.98 93.1836C217.98 93.1836 217.722 94.2533 218.669 94.7904C218.669 94.7904 218.708 94.3313 219.588 94.5379C219.899 94.6053 220.216 94.6361 220.533 94.6297C220.961 94.621 221.374 94.4744 221.712 94.212V94.212C221.712 94.212 224.217 93.3236 225.375 89.364C225.375 89.364 226.126 88.5261 226.108 88.2989L224.603 88.8521C224.603 88.8521 225.062 89.9401 224.603 90.8032C224.603 90.8032 224.651 88.8957 224.373 88.9256C224.316 88.9256 223.589 89.2538 223.589 89.2538C223.589 89.2538 224.361 91.1475 223.64 92.4674C223.64 92.4674 224.003 90.2018 223.311 89.3846L222.243 89.9355C222.243 89.9355 223.162 91.8981 222.394 93.4223C222.394 93.4223 222.691 91.0397 222.017 90.0733L221.041 90.7619C221.041 90.7619 221.896 92.6924 221.252 93.9572C221.252 93.9572 221.317 91.1682 220.827 90.9341C220.827 90.9341 219.97 91.6227 219.827 91.9073C219.827 91.9073 220.411 93.3075 219.97 94.0077C219.97 94.0077 219.816 92.1415 219.614 92.1231C219.614 92.1231 218.731 93.3098 218.605 94.1477C218.684 93.3712 218.966 92.629 219.421 91.9946C218.944 92.0604 218.497 92.2638 218.134 92.5799C218.134 92.5799 218.306 91.7168 219.639 91.7099C219.639 91.7099 220.363 90.8124 220.558 90.7642C220.558 90.7642 219.241 90.5874 218.421 90.9019C218.421 90.9019 219.168 90.1169 220.811 90.5737L221.776 89.8644C221.776 89.8644 220.048 89.5384 219.297 89.7634C219.297 89.7634 220.184 89.0748 222.036 89.706L223.077 89.1528C223.077 89.1528 221.608 88.758 220.719 88.8291C220.719 88.8291 221.677 88.3701 223.38 89.0059L224.12 88.719C224.12 88.719 223.042 88.4504 222.728 88.3999C222.413 88.3494 222.397 88.2622 222.397 88.2622C223.091 88.1825 223.795 88.297 224.428 88.5927C224.428 88.5927 225.989 88.0854 225.966 87.9867Z" fill="#2D9CDB"/>
<path opacity="0.1" d="M196.42 19.5781C196.42 19.5781 189.406 14.3376 186.899 20.0142C186.899 20.0142 186.134 20.8062 186.683 21.7542C186.683 21.7542 186.945 21.3846 187.602 21.9975C187.835 22.2138 188.092 22.4018 188.37 22.5576C188.745 22.7662 189.178 22.8468 189.604 22.7871V22.7871C189.604 22.7871 192.214 23.2898 195.222 20.4641C195.222 20.4641 196.293 20.1198 196.394 19.9178L194.816 19.6332C194.816 19.6332 194.65 20.797 193.834 21.3181C193.834 21.3181 194.843 19.6975 194.581 19.5804C194.528 19.5552 193.74 19.4656 193.74 19.4656C193.74 19.4656 193.444 21.4902 192.157 22.2546C192.157 22.2546 193.621 20.4848 193.439 19.4289L192.237 19.3646C192.237 19.3646 192.033 21.5201 190.599 22.4474C190.599 22.4474 192.065 20.5445 191.978 19.3692L190.787 19.4656C190.787 19.4656 190.557 21.5614 189.349 22.3235C189.349 22.3235 190.819 19.9546 190.516 19.5047C190.516 19.5047 189.429 19.6585 189.16 19.8375C189.16 19.8375 188.953 21.3387 188.218 21.7198C188.218 21.7198 189.031 20.0326 188.866 19.9155C188.866 19.9155 187.503 20.4917 186.968 21.1482C187.431 20.5196 188.05 20.0227 188.765 19.7067C188.32 19.5221 187.832 19.4711 187.358 19.5597C187.358 19.5597 187.944 18.9033 189.098 19.5712C189.098 19.5712 190.176 19.1649 190.36 19.2154C190.36 19.2154 189.314 18.396 188.448 18.2536C188.448 18.2536 189.491 17.9552 190.675 19.1718L191.867 19.0502C191.867 19.0502 190.544 17.9024 189.781 17.7096C189.781 17.7096 190.891 17.5696 192.171 19.0433L193.349 19.0961C193.349 19.0961 192.283 18.0126 191.481 17.6224C191.481 17.6224 192.538 17.7142 193.685 19.1213L194.469 19.2476C194.469 19.2476 193.676 18.4717 193.428 18.2697C193.179 18.0677 193.216 18.0011 193.216 18.0011C193.855 18.2844 194.402 18.7389 194.797 19.3141C194.797 19.3141 196.39 19.6722 196.42 19.5781Z" fill="#2D9CDB"/>
<path opacity="0.1" d="M201.837 57.4129C201.837 57.4129 199.42 49.0047 193.983 52.0232C193.983 52.0232 192.893 52.1908 192.758 53.2788C192.758 53.2788 193.19 53.1434 193.339 54.0226C193.395 54.3384 193.487 54.6466 193.615 54.9407C193.785 55.3363 194.081 55.6652 194.456 55.8773V55.8773C194.456 55.8773 196.235 57.8513 200.339 57.4106C200.339 57.4106 201.401 57.7825 201.603 57.6815L200.516 56.5016C200.516 56.5016 199.682 57.3326 198.717 57.2545C198.717 57.2545 200.5 56.5659 200.362 56.3203C200.335 56.2698 199.76 55.7212 199.76 55.7212C199.76 55.7212 198.303 57.1581 196.814 56.9906C196.814 56.9906 199.05 56.4626 199.542 55.5123L198.622 54.7364C198.622 54.7364 197.156 56.3295 195.453 56.2055C195.453 56.2055 197.77 55.5697 198.409 54.5804L197.402 53.9399C197.402 53.9399 195.943 55.4664 194.527 55.3516C194.527 55.3516 197.131 54.3485 197.163 53.8091C197.163 53.8091 196.203 53.2765 195.879 53.2582C195.879 53.2582 194.805 54.3278 193.99 54.1901C193.99 54.1901 195.658 53.3339 195.598 53.1411C195.598 53.1411 194.164 52.7807 193.339 52.9804C194.086 52.7591 194.878 52.7362 195.637 52.9139C195.394 52.4985 195.035 52.1634 194.603 51.9498C194.603 51.9498 195.467 51.7776 195.982 53.0057C195.982 53.0057 197.087 53.3316 197.202 53.4831C197.202 53.4831 196.864 52.2 196.26 51.5641C196.26 51.5641 197.271 51.9544 197.476 53.6438L198.501 54.2659C198.501 54.2659 198.142 52.5443 197.646 51.9383C197.646 51.9383 198.616 52.4961 198.747 54.4426L199.666 55.1932C199.666 55.1932 199.47 53.6874 199.066 52.8978C199.066 52.8978 199.854 53.6094 199.919 55.4228L200.466 55.9966C200.466 55.9966 200.305 54.8994 200.236 54.5872C200.167 54.2751 200.236 54.2314 200.236 54.2314C200.576 54.842 200.739 55.5351 200.707 56.2331C200.707 56.2331 201.755 57.468 201.837 57.4129Z" fill="#2D9CDB"/>
<path opacity="0.1" d="M147.964 76.3583C147.964 76.3583 143.269 68.9716 138.91 73.3926C138.91 73.3926 137.912 73.8517 138.087 74.942C138.087 74.942 138.466 74.6895 138.857 75.4929C138.997 75.7776 139.172 76.0443 139.376 76.2871C139.65 76.6185 140.026 76.8508 140.445 76.9482V76.9482C140.445 76.9482 142.708 78.3438 146.523 76.7646C146.523 76.7646 147.647 76.8242 147.812 76.6704L146.434 75.8441C146.434 75.8441 145.866 76.877 144.917 77.0721C144.917 77.0721 146.438 75.9244 146.234 75.7133C146.195 75.6719 145.487 75.3093 145.487 75.3093C145.487 75.3093 144.492 77.0951 143.016 77.3545C143.016 77.3545 145.013 76.2182 145.22 75.1669L144.119 74.6826C144.119 74.6826 143.161 76.6222 141.493 76.978C141.493 76.978 143.538 75.7178 143.871 74.5885L142.722 74.2579C142.722 74.2579 141.752 76.1333 140.362 76.4202C140.362 76.4202 142.577 74.7262 142.456 74.1983C142.456 74.1983 141.385 73.9572 141.077 74.0307C141.077 74.0307 140.348 75.3598 139.526 75.4562C139.526 75.4562 140.886 74.1661 140.773 73.9963C140.773 73.9963 139.296 74.0537 138.56 74.4783C139.216 74.0538 139.972 73.8085 140.753 73.7667C140.403 73.4364 139.965 73.2154 139.491 73.1309C139.491 73.1309 140.27 72.7246 141.1 73.7575C141.1 73.7575 142.249 73.7575 142.407 73.8723C142.407 73.8723 141.718 72.7246 140.962 72.2954C140.962 72.2954 142.042 72.3872 142.713 73.9504L143.873 74.2579C143.873 74.2579 143.044 72.7085 142.398 72.2655C142.398 72.2655 143.485 72.5272 144.158 74.3612L145.243 74.8203C145.243 74.8203 144.632 73.4316 144.018 72.782C144.018 72.782 144.974 73.2411 145.546 74.9649L146.236 75.3621C146.236 75.3621 145.776 74.3544 145.613 74.0766C145.45 73.7989 145.514 73.7346 145.514 73.7346C146.012 74.2252 146.362 74.8443 146.528 75.5227C146.528 75.5227 147.902 76.4363 147.964 76.3583Z" fill="#2D9CDB"/>
<path d="M178.821 38.6143C178.821 38.6143 174.356 31.0875 169.859 35.3708C169.859 35.3708 168.848 35.807 168.99 36.895C168.99 36.895 169.374 36.6517 169.742 37.4666C169.873 37.7562 170.039 38.0291 170.236 38.2792C170.5 38.6177 170.868 38.8597 171.284 38.9678V38.9678C171.284 38.9678 173.501 40.4323 177.365 38.9678C177.365 38.9678 178.486 39.0619 178.656 38.9127L177.307 38.045C177.307 38.045 176.71 39.0573 175.754 39.2249C175.754 39.2249 177.309 38.1162 177.114 37.9073C177.073 37.8637 176.379 37.4781 176.379 37.4781C176.379 37.4781 175.328 39.2341 173.851 39.4475C173.851 39.4475 175.882 38.3733 176.119 37.3311L175.034 36.8216C175.034 36.8216 174.016 38.7337 172.336 39.039C172.336 39.039 174.421 37.843 174.788 36.7252L173.653 36.3579C173.653 36.3579 172.624 38.1942 171.226 38.4467C171.226 38.4467 173.492 36.8216 173.387 36.2913C173.387 36.2913 172.325 36.0159 172.008 36.0801C172.008 36.0801 171.238 37.3862 170.413 37.4574C170.413 37.4574 171.812 36.2133 171.707 36.0388C171.707 36.0388 170.227 36.0503 169.48 36.452C170.149 36.0489 170.912 35.8273 171.693 35.8093C171.353 35.468 170.921 35.2335 170.45 35.1344C170.45 35.1344 171.242 34.7511 172.058 35.8093C172.058 35.8093 173.207 35.8483 173.361 35.9654C173.361 35.9654 172.711 34.8176 171.966 34.3448C171.966 34.3448 173.042 34.4687 173.665 36.0526L174.814 36.3969C174.814 36.3969 174.035 34.8222 173.4 34.3586C173.4 34.3586 174.48 34.6547 175.096 36.5071L176.165 37.0052C176.165 37.0052 175.597 35.5981 175.016 34.9393C175.016 34.9393 175.956 35.4282 176.477 37.1682L177.151 37.5859C177.151 37.5859 176.719 36.5645 176.567 36.2821C176.415 35.9998 176.48 35.9378 176.48 35.9378C176.961 36.4435 177.293 37.0729 177.438 37.7558C177.438 37.7558 178.755 38.69 178.821 38.6143Z" fill="#2D9CDB"/>
<path d="M150.574 54.4465C150.574 54.4465 150.804 45.7009 144.721 46.9335C144.721 46.9335 143.631 46.7659 143.172 47.7622C143.172 47.7622 143.631 47.7622 143.503 48.6459C143.461 48.961 143.456 49.28 143.489 49.5962C143.531 50.0251 143.712 50.4284 144.006 50.7439C144.006 50.7439 145.102 53.1633 149.149 53.9851C149.149 53.9851 150.048 54.6622 150.273 54.6255L149.583 53.1748C149.583 53.1748 148.538 53.7119 147.639 53.347C147.639 53.347 149.547 53.2345 149.494 52.9544C149.494 52.8971 149.099 52.1992 149.099 52.1992C149.099 52.1992 147.274 53.1289 145.907 52.5183C145.907 52.5183 148.205 52.6905 148.956 51.9353L148.315 50.9184C148.315 50.9184 146.435 51.9927 144.849 51.3591C144.849 51.3591 147.251 51.4555 148.161 50.7049L147.396 49.7867C147.396 49.7867 145.541 50.8013 144.227 50.2642C144.227 50.2642 147.012 50.0966 147.214 49.5893C147.214 49.5893 146.46 48.7928 146.157 48.6712C146.157 48.6712 144.81 49.3598 144.075 48.9879C144.075 48.9879 145.913 48.6803 145.925 48.476C145.925 48.476 144.668 47.6979 143.82 47.6405C144.602 47.6545 145.366 47.8729 146.038 48.274C145.933 47.8049 145.693 47.3764 145.348 47.0414C145.348 47.0414 146.224 47.1401 146.343 48.4646C146.343 48.4646 147.301 49.1119 147.364 49.2909C147.364 49.2909 147.43 47.9665 147.046 47.1768C147.046 47.1768 147.892 47.854 147.575 49.5251L148.363 50.4295C148.363 50.4295 148.542 48.6803 148.255 47.9527C148.255 47.9527 149.009 48.7767 148.545 50.6728L149.181 51.6621C149.181 51.6621 149.452 50.1678 149.308 49.2886C149.308 49.2886 149.841 50.2068 149.354 51.9536L149.703 52.6652C149.703 52.6652 149.88 51.5703 149.903 51.2512C149.926 50.9322 150.013 50.9115 150.013 50.9115C150.152 51.5962 150.097 52.3059 149.855 52.9613C149.855 52.9613 150.473 54.4763 150.574 54.4465Z" fill="#2D9CDB"/>
<path opacity="0.1" d="M160.63 165.57C164.048 165.57 166.819 165.103 166.819 164.526C166.819 163.949 164.048 163.481 160.63 163.481C157.212 163.481 154.441 163.949 154.441 164.526C154.441 165.103 157.212 165.57 160.63 165.57Z" fill="#2D9CDB"/>
<path opacity="0.1" d="M138.064 181.43C141.482 181.43 144.252 180.962 144.252 180.385C144.252 179.808 141.482 179.341 138.064 179.341C134.646 179.341 131.875 179.808 131.875 180.385C131.875 180.962 134.646 181.43 138.064 181.43Z" fill="#2D9CDB"/>
<path opacity="0.1" d="M21.3996 173.306C24.8176 173.306 27.5883 172.838 27.5883 172.261C27.5883 171.684 24.8176 171.217 21.3996 171.217C17.9817 171.217 15.2109 171.684 15.2109 172.261C15.2109 172.838 17.9817 173.306 21.3996 173.306Z" fill="#2D9CDB"/>
<path opacity="0.1" d="M185.013 180.382C188.431 180.382 191.202 179.914 191.202 179.337C191.202 178.761 188.431 178.293 185.013 178.293C181.595 178.293 178.824 178.761 178.824 179.337C178.824 179.914 181.595 180.382 185.013 180.382Z" fill="#2D9CDB"/>
<path d="M191.451 167.647C196.555 167.647 200.692 166.948 200.692 166.086C200.692 165.224 196.555 164.525 191.451 164.525C186.348 164.525 182.211 165.224 182.211 166.086C182.211 166.948 186.348 167.647 191.451 167.647Z" fill="#2D9CDB"/>
<path d="M195.282 163.533C195.704 163.191 196.011 162.728 196.162 162.207C196.277 161.679 196.052 161.047 195.549 160.855C194.983 160.639 194.379 161.029 193.919 161.424C193.46 161.819 192.938 162.271 192.338 162.188C192.646 161.909 192.877 161.555 193.007 161.16C193.137 160.766 193.164 160.344 193.083 159.936C193.057 159.768 192.985 159.609 192.876 159.477C192.561 159.142 191.994 159.287 191.617 159.551C190.422 160.391 190.088 162.012 190.082 163.471C189.962 162.946 190.063 162.397 190.061 161.865C190.059 161.332 189.909 160.717 189.452 160.437C189.171 160.281 188.854 160.201 188.533 160.207C187.995 160.189 187.395 160.242 187.03 160.634C186.57 161.121 186.692 161.94 187.087 162.471C187.482 163.001 188.087 163.343 188.643 163.715C189.088 163.98 189.468 164.342 189.755 164.773C189.788 164.833 189.815 164.896 189.836 164.961H193.205C193.959 164.582 194.658 164.101 195.282 163.533V163.533Z" fill="#2D9CDB"/>
<path d="M17.25 167.405C17.25 167.405 20.7775 167.297 21.8461 166.54C22.9147 165.782 27.2765 164.88 27.5407 166.094C27.805 167.309 32.8447 172.129 28.8598 172.161C24.875 172.193 19.6009 171.541 18.5392 170.894C17.4775 170.247 17.25 167.405 17.25 167.405Z" fill="#A8A8A8"/>
<path opacity="0.2" d="M28.9265 171.74C24.9416 171.772 19.6676 171.12 18.6059 170.473C17.7969 169.981 17.4752 168.216 17.3672 167.401H17.25C17.25 167.401 17.4798 170.245 18.5346 170.89C19.5894 171.535 24.8704 172.19 28.8552 172.158C30.0043 172.158 30.4018 171.74 30.3812 171.134C30.2203 171.503 29.7814 171.733 28.9265 171.74Z" fill="black"/>
<defs>
<linearGradient id="paint0_linear" x1="51.241" y1="99.5944" x2="122.971" y2="99.5944" gradientUnits="userSpaceOnUse">
<stop stop-color="#808080" stop-opacity="0.25"/>
<stop offset="0.54" stop-color="#808080" stop-opacity="0.12"/>
<stop offset="1" stop-color="#808080" stop-opacity="0.1"/>
</linearGradient>
</defs>
</svg>
