<svg width="45" height="45" viewBox="0 0 45 45" fill="none" xmlns="http://www.w3.org/2000/svg">
    <circle cx="22.5" cy="22.5" r="22.5" fill="#2D9CDB"/>
    <path d="M29.8188 23.1804L28.4989 24.391L27.9755 23.9602C27.8387 23.8478 27.6333 23.8629 27.5161 23.9937C27.3989 24.1247 27.4146 24.322 27.5511 24.4344L28.2985 25.0496C28.3597 25.1 28.4353 25.125 28.5107 25.125C28.5919 25.125 28.6731 25.096 28.7357 25.0383L30.2689 23.6321C30.3991 23.5128 30.4037 23.315 30.2793 23.1903C30.155 23.0654 29.9486 23.0612 29.8188 23.1804Z" fill="white"/>
    <path d="M25.73 27.625H17.2594C17.0795 27.625 16.9336 27.7649 16.9336 27.9375C16.9336 28.1101 17.0795 28.25 17.2594 28.25H25.73C25.9099 28.25 26.0558 28.1101 26.0558 27.9375C26.0558 27.7649 25.9099 27.625 25.73 27.625Z" fill="white"/>
    <path d="M25.73 29.1875H17.2594C17.0795 29.1875 16.9336 29.3274 16.9336 29.5C16.9336 29.6726 17.0795 29.8125 17.2594 29.8125H25.73C25.9099 29.8125 26.0558 29.6726 26.0558 29.5C26.0558 29.3274 25.9099 29.1875 25.73 29.1875Z" fill="white"/>
    <path d="M16.5289 17.6115L16.5192 17.6293C16.4713 17.7174 16.446 17.8151 16.4454 17.9145C16.4404 18.6837 16.7914 19.1218 17.0866 19.3539C17.3193 19.5365 17.5877 19.6706 17.8887 19.7549L17.8895 19.8209C17.8919 19.9869 17.963 20.1452 18.087 20.2609C18.2087 20.3742 18.3716 20.4375 18.5411 20.4375C18.5446 20.4375 18.5481 20.4375 18.5514 20.4374L19.069 20.4295C19.4281 20.424 19.7147 20.141 19.7103 19.7967L19.7093 19.7217C19.9995 19.6271 20.25 19.4858 20.4578 19.299C20.8229 18.9706 21.0125 18.5241 21.0063 18.0078C20.9991 17.4906 20.8071 17.0523 20.4502 16.7359C20.6574 16.6918 20.8326 16.5526 20.9137 16.3588L20.9199 16.344C20.9506 16.2707 20.9667 16.1925 20.967 16.1135C20.9694 15.5827 20.7954 15.1391 20.4502 14.795C20.243 14.589 19.9923 14.4345 19.7009 14.3329L19.6988 14.1793C19.6964 14.0132 19.6255 13.8549 19.5013 13.7392C19.3796 13.6258 19.2167 13.5625 19.0472 13.5625C19.0437 13.5625 19.0402 13.5625 19.0369 13.5626L18.5189 13.5705C18.1597 13.576 17.8731 13.8591 17.8777 14.2036L17.8794 14.3303C17.5882 14.4271 17.3365 14.5724 17.1273 14.7647C16.764 15.0997 16.576 15.5424 16.5827 16.0458C16.5916 16.6589 16.851 17.0457 17.0969 17.2755H17.0961C16.857 17.2792 16.6394 17.4082 16.5289 17.6115ZM17.1067 17.9004L18.0323 17.8861C18.0355 18.138 18.106 18.3165 18.2434 18.4217C18.3762 18.5235 18.5468 18.5744 18.755 18.5744C18.7617 18.5744 18.7684 18.5743 18.7751 18.5742C18.9877 18.571 19.1468 18.5213 19.2517 18.4252C19.3571 18.3289 19.4088 18.199 19.4061 18.0358C19.4042 17.8745 19.3512 17.7458 19.248 17.6499C19.1446 17.5542 18.9617 17.463 18.6997 17.3766C18.207 17.2345 17.8405 17.0659 17.6011 16.8709C17.3615 16.6758 17.2395 16.3982 17.2342 16.0378C17.2298 15.7051 17.3445 15.4314 17.5782 15.2159C17.8122 15.0008 18.1319 14.8711 18.5379 14.8273L18.5293 14.1954L19.0472 14.1875L19.056 14.8281C19.4476 14.8712 19.7559 15.0048 19.9807 15.2285C20.2057 15.4526 20.317 15.7466 20.3154 16.1109L20.3092 16.1257L19.3805 16.1403C19.3773 15.9256 19.3215 15.7617 19.2122 15.6481C19.1059 15.5375 18.9594 15.4824 18.7733 15.4824C18.7685 15.4824 18.7636 15.4824 18.7588 15.4825C18.5544 15.4857 18.4071 15.5364 18.3176 15.634C18.2274 15.732 18.1838 15.8626 18.1861 16.026C18.1879 16.1775 18.238 16.2979 18.336 16.3869C18.4338 16.476 18.6204 16.5703 18.8955 16.6704C19.3797 16.8047 19.7429 16.9728 19.9847 17.1749C20.226 17.3767 20.3498 17.6569 20.3547 18.015C20.3588 18.3577 20.2449 18.6336 20.0122 18.843C19.7793 19.0523 19.4591 19.179 19.0511 19.2226L19.0587 19.8046L18.5411 19.8125L18.5329 19.2308C18.1155 19.204 17.7711 19.0836 17.4996 18.8704C17.2283 18.6572 17.0942 18.3397 17.0969 17.9183L17.1067 17.9004Z" fill="white"/>
    <path d="M26.0539 21.7052C26.0543 21.6992 26.0558 21.6935 26.0558 21.6875C26.0558 21.5149 25.9099 21.375 25.73 21.375H17.2594C17.0795 21.375 16.9336 21.5149 16.9336 21.6875C16.9336 21.8601 17.0795 22 17.2594 22H25.73C25.7653 22 25.7985 21.9933 25.8303 21.9834C25.9002 21.8871 25.9748 21.7943 26.0539 21.7052Z" fill="white"/>
    <path d="M28.6606 27.6165V30.75C28.6606 31.0946 28.362 31.375 27.9951 31.375H15.3172C14.9502 31.375 14.6516 31.0946 14.6516 30.75V13.25C14.6516 12.9054 14.9502 12.625 15.3172 12.625H23.6109V15.3139C23.6109 15.9862 24.1929 16.5312 24.9108 16.5312H28.6606V20.446C28.7414 20.4409 28.8227 20.4375 28.905 20.4375C29.0426 20.4375 29.1784 20.4451 29.3122 20.4591V16.2188L23.8789 12H23.856H23.6109H15.3172C14.5897 12 14 12.5597 14 13.25V30.75C14 31.4403 14.5897 32 15.3172 32H27.9951C28.7225 32 29.3122 31.4403 29.3122 30.75V27.6034C29.1784 27.6174 29.0426 27.625 28.905 27.625C28.8227 27.625 28.7414 27.6216 28.6606 27.6165ZM24.2624 13.1191L27.8557 15.9062H24.9108C24.5532 15.9062 24.2624 15.6405 24.2624 15.3139V13.1191Z" fill="white"/>
    <path d="M28.9036 21.0625C27.1942 21.0625 25.8086 22.3915 25.8086 24.0312C25.8086 25.671 27.1942 27 28.9036 27C30.6131 27 31.9986 25.671 31.9986 24.0312C31.9986 22.3915 30.6131 21.0625 28.9036 21.0625ZM28.9036 26.375C27.5562 26.375 26.4602 25.3236 26.4602 24.0312C26.4602 22.7389 27.5562 21.6875 28.9036 21.6875C30.251 21.6875 31.3471 22.7389 31.3471 24.0312C31.3471 25.3236 30.251 26.375 28.9036 26.375Z" fill="white"/>
    <path d="M17.2594 22.9375C17.0795 22.9375 16.9336 23.0774 16.9336 23.25C16.9336 23.4226 17.0795 23.5625 17.2594 23.5625H25.1928C25.222 23.3477 25.2707 23.1388 25.3378 22.9375H17.2594Z" fill="white"/>
    <path d="M26.0539 26.3573C25.9748 26.2682 25.9002 26.1754 25.8303 26.0791C25.7985 26.0692 25.7653 26.0625 25.73 26.0625H17.2594C17.0795 26.0625 16.9336 26.2024 16.9336 26.375C16.9336 26.5476 17.0795 26.6875 17.2594 26.6875H25.73C25.9099 26.6875 26.0558 26.5476 26.0558 26.375C26.0558 26.369 26.0543 26.3632 26.0539 26.3573Z" fill="white"/>
    <path d="M17.2594 24.5C17.0795 24.5 16.9336 24.6399 16.9336 24.8125C16.9336 24.9851 17.0795 25.125 17.2594 25.125H25.3378C25.2707 24.9237 25.222 24.7148 25.1928 24.5H17.2594Z" fill="white"/>
</svg>
