<svg width="45" height="45" viewBox="0 0 45 45" fill="none" xmlns="http://www.w3.org/2000/svg">
    <circle cx="22.5" cy="22.5" r="22.5" fill="#7F65D2"/>
    <path d="M33 23C33 28.5111 28.5111 33 23 33C17.4889 33 13 28.5111 13 23C13 19.9778 14.4 17.1111 16.7111 15.2222H15.4444C15.2 15.2222 15 15.0222 15 14.7778C15 14.5333 15.2 14.3333 15.4444 14.3333H18.1111C18.2444 14.3333 18.3556 14.4 18.4444 14.4889C18.4667 14.5111 18.4667 14.5333 18.4889 14.5556C18.4889 14.5556 18.4889 14.5556 18.4889 14.5778C18.4889 14.5778 18.4889 14.6 18.5111 14.6V14.6222C18.5333 14.6889 18.5556 14.7778 18.5333 14.8444V17.4444C18.5333 17.6889 18.3333 17.8889 18.0889 17.8889C17.8444 17.8889 17.6444 17.6889 17.6444 17.4444V15.6222C15.3111 17.3111 13.8889 20.0889 13.8889 23C13.8889 28.0222 17.9778 32.1111 23 32.1111C28.0222 32.1111 32.1111 28.0222 32.1111 23C32.1111 17.9778 28.0222 13.8889 23 13.8889C22.7556 13.8889 22.5556 13.6889 22.5556 13.4444C22.5556 13.2 22.7556 13 23 13C28.5111 13 33 17.4889 33 23ZM19.8 25.5778L22.3778 23L19.8 20.4222C19.7111 20.3333 19.6667 20.2222 19.6667 20.1111V19.2222H19.4444C19.2 19.2222 19 19.0222 19 18.7778C19 18.5333 19.2 18.3333 19.4444 18.3333H26.5556C26.8 18.3333 27 18.5333 27 18.7778C27 19.0222 26.8 19.2222 26.5556 19.2222H26.3333V20.1111C26.3333 20.2222 26.2889 20.3333 26.2 20.4222L23.6222 23L26.2 25.5778C26.2889 25.6667 26.3333 25.7778 26.3333 25.8889V26.7778H26.5556C26.8 26.7778 27 26.9778 27 27.2222C27 27.4667 26.8 27.6667 26.5556 27.6667H19.4444C19.2 27.6667 19 27.4667 19 27.2222C19 26.9778 19.2 26.7778 19.4444 26.7778H19.6667V25.8889C19.6667 25.7778 19.7111 25.6667 19.8 25.5778ZM23 22.3778L25.4444 19.9333V19.2222H20.5556V19.9333L23 22.3778ZM23 23.6222L20.5556 26.0667V26.7778H25.4444V26.0667L23 23.6222ZM20.2222 29.0222C20.2 29.0222 20.1778 29 20.1333 29C20.0667 29 20.0222 29 19.9556 29C19.9333 29 19.9111 29.0222 19.8667 29.0222C19.8444 29.0444 19.8222 29.0444 19.8 29.0667C19.7778 29.0889 19.7556 29.1111 19.7333 29.1111C19.6667 29.2222 19.6222 29.3333 19.6222 29.4444C19.6222 29.5111 19.6222 29.5556 19.6444 29.6222C19.6667 29.6667 19.6889 29.7333 19.7333 29.7556C19.8222 29.8444 19.9333 29.8889 20.0444 29.8889C20.1111 29.8889 20.1556 29.8889 20.2222 29.8444C20.2667 29.8222 20.3333 29.8 20.3556 29.7556C20.4 29.7111 20.4222 29.6667 20.4444 29.6222C20.4667 29.5778 20.4889 29.5111 20.4889 29.4444C20.4889 29.3333 20.4444 29.2222 20.3556 29.1333C20.3333 29.1111 20.3111 29.0889 20.2889 29.0889C20.2667 29.0889 20.2444 29.0444 20.2222 29.0222ZM22.7333 29.1333C22.6444 29.2222 22.6 29.3333 22.6 29.4444C22.6 29.5111 22.6 29.5556 22.6222 29.6222C22.6444 29.6667 22.6667 29.7333 22.7111 29.7556C22.8 29.8444 22.9111 29.8889 23.0222 29.8889C23.0889 29.8889 23.1333 29.8889 23.2 29.8444C23.2444 29.8222 23.3111 29.8 23.3333 29.7556C23.3778 29.7111 23.4 29.6667 23.4222 29.6222C23.4444 29.5778 23.4667 29.5111 23.4667 29.4444C23.4667 29.3333 23.4222 29.2222 23.3333 29.1333C23.2 28.9556 22.9111 28.9556 22.7333 29.1333ZM25.6222 29.1333C25.6 29.1556 25.5778 29.1778 25.5778 29.2C25.5556 29.2222 25.5556 29.2444 25.5333 29.2667C25.5333 29.2889 25.5111 29.3111 25.5111 29.3556C25.5111 29.3778 25.5111 29.4222 25.5111 29.4444C25.5111 29.5111 25.5111 29.5556 25.5333 29.6222C25.5556 29.6667 25.5778 29.7333 25.6222 29.7556C25.7111 29.8444 25.8222 29.8889 25.9333 29.8889C26.0444 29.8889 26.1556 29.8444 26.2444 29.7556C26.3333 29.6667 26.3778 29.5556 26.3778 29.4444C26.3778 29.3333 26.3333 29.2222 26.2444 29.1333C26.0889 28.9556 25.8 28.9556 25.6222 29.1333Z" fill="white"/>
</svg>
