<svg width="404" height="423" viewBox="0 0 404 423" fill="none" xmlns="http://www.w3.org/2000/svg">
  <path d="M366.34 572.738C356.477 561.016 339.391 558.654 325.375 566.181C334.648 548.532 333.71 527.33 321.017 512.246C311.154 500.524 296.289 495.145 281.31 496.262C288.818 479.441 287.212 459.786 275.328 445.663C264.333 432.596 247.314 427.388 230.575 430.314C232.605 421.22 230.678 411.519 224.533 404.217C216.853 395.089 204.474 391.885 192.8 394.979C199.856 370.99 195.842 345.157 179.591 325.845C164.149 307.494 267.722 164.46 244.321 166.1C250.989 151.791 123.034 269.555 112.928 257.545C102.499 245.151 85.5504 241.197 69.913 245.822C71.974 236.374 69.9656 226.577 63.5786 218.986C55.0896 208.898 41.28 205.749 28.6305 209.829C41.0983 191.296 41.193 167.421 27.2872 150.895C15.16 136.483 -4.5584 131.578 -22.7337 136.697C-20.2439 129.514 -21.2621 121.674 -26.113 115.909C-30.2362 111.009 -36.3572 108.61 -42.6913 108.689C-32.6993 86.824 -34.5251 61.4463 -49.967 43.0953C-71.7151 17.2503 -112.206 15.5471 -140.453 39.3163L-682 448.259L-188.344 1034.91L360.12 620.148C375.012 607.616 377.821 586.381 366.34 572.738Z" fill="#FFFAE5"/>
  <path opacity="0.5" d="M242.481 172.721C232.524 164.114 217.573 165.173 208.998 175.092C186.685 200.905 190.059 233.363 159.854 268.306C190.059 233.363 222.665 232.006 244.978 206.194C253.552 196.275 252.437 181.328 242.481 172.721Z" fill="#FFFAE5"/>
  <path d="M242.481 172.721C235.805 166.95 225.697 167.666 219.948 174.317C205.041 191.563 207.306 213.412 187.136 236.745C207.306 213.412 229.253 212.493 244.161 195.247C249.797 188.499 249.156 178.491 242.481 172.721Z" fill="#FFFAE5"/>
  <path d="M250.592 187.808L225.911 166.276C224.78 165.298 224.541 163.516 225.613 162.276L229.608 157.654L258.588 182.903L254.593 187.524C253.521 188.764 251.724 188.786 250.592 187.808Z" fill="url(#paint0_linear)"/>
  <path d="M309.993 155.453L306.556 191.674C306.141 196.042 303.897 200.011 300.377 202.482L266.39 226.476C265.287 227.295 263.75 226.557 263.543 225.196L258.331 182.286L309.993 155.453Z" fill="url(#paint1_linear)"/>
  <path d="M249.769 102.999L214.297 111.331C210.035 112.374 206.433 115.169 204.497 119.01L185.446 155.913C184.795 157.124 185.748 158.538 187.124 158.546L230.255 157.819L249.769 102.999Z" fill="url(#paint2_linear)"/>
  <path d="M355.247 42.7264C308.574 41.3758 232.401 98.6211 225.525 151.17C225.327 152.772 225.761 154.328 226.892 155.306L260.98 185.166C262.111 186.145 263.617 186.461 265.27 185.921C316.529 172.132 363.027 88.8409 355.247 42.7264Z" fill="url(#paint3_linear)"/>
  <path d="M355.247 42.7274C338.373 42.1236 317.641 49.4118 297.774 61.1889C289.339 53.1093 344.76 102.199 344.76 102.199C353.75 80.822 358.075 59.3521 355.247 42.7274Z" fill="url(#paint4_linear)"/>
  <path d="M282.609 126.07C291.357 133.632 304.557 132.698 312.091 123.982C319.624 115.267 318.64 102.071 309.892 94.5091C301.144 86.9468 287.944 87.8816 280.411 96.597C272.877 105.312 273.861 118.508 282.609 126.07Z" fill="url(#paint5_linear)"/>
  <path d="M310.482 119.441C305.459 127.31 295.153 129.627 287.164 124.69C279.272 119.641 276.915 109.332 281.825 101.365C286.945 93.3835 297.364 91.1641 305.353 96.1008C313.245 101.15 315.504 111.572 310.482 119.441Z" fill="url(#paint6_linear)"/>
  <path d="M310.482 119.44C312.562 116.118 313.333 112.254 313.066 108.675C312.773 109.013 312.481 109.352 312.302 109.788C311.164 111.561 310.139 113.433 308.323 114.62C306.701 115.581 304.497 115.843 302.75 115.12C300.242 114.134 298.353 111.516 295.748 110.643C292.495 109.603 289.056 111.751 285.706 110.825C284.087 110.41 282.843 109.334 281.906 108.131C281.211 107.333 280.501 106.326 280.31 105.175C278.09 112.316 280.809 120.378 287.472 124.562C295.153 129.626 305.669 127.294 310.482 119.44Z" fill="url(#paint7_linear)"/>
  <g opacity="0.4">
    <path opacity="0.4" d="M305.862 100.086C305.636 99.8906 305.296 99.5972 305.07 99.4016C304.731 99.1082 304.407 99.0253 304.099 99.1529C303.678 99.1827 303.483 99.4082 303.191 99.7463C302.703 100.31 302.766 101.152 303.332 101.641L303.445 101.739C303.671 101.934 303.898 102.13 304.124 102.326C304.463 102.619 304.787 102.702 305.208 102.672C305.629 102.642 305.938 102.515 306.23 102.177C306.491 101.417 306.428 100.575 305.862 100.086Z" fill="white"/>
    <path opacity="0.4" d="M301.56 97.7456C301.431 97.4372 301.091 97.1438 300.768 97.0609C297.078 95.8408 293.077 96.1241 289.607 97.8513C288.894 98.2193 288.746 99.0763 289.003 99.693C289.117 99.7908 289.132 100.001 289.245 100.099C289.698 100.49 290.232 100.558 290.848 100.303C293.702 98.8311 296.861 98.6074 299.79 99.564C300.114 99.6468 300.535 99.617 300.843 99.4894C301.151 99.3618 301.443 99.0236 301.525 98.7004C301.72 98.4749 301.802 98.1517 301.56 97.7456Z" fill="white"/>
  </g>
  <path d="M231.045 145.7C229.693 148.865 228.357 152.24 227.119 155.502L242.167 168.51C242.33 167.863 242.38 167.119 242.447 166.585C242.742 164.871 243.151 163.255 243.559 161.639C244.264 158.309 245.291 155.061 246.304 151.604C248.457 144.996 251.047 138.57 254.171 132.211C260.323 119.606 268.222 107.724 277.576 96.9033C282.366 91.5907 287.269 86.3758 292.738 81.6499L294.718 79.8166L296.812 78.0811L300.998 74.6101L305.411 71.3347L307.618 69.697L309.937 68.157C321.812 59.9088 334.849 53.0597 348.289 47.3461C334.205 51.5181 320.441 57.1488 307.42 64.2084L304.971 65.44L302.539 66.8821L297.673 69.7663L293.034 72.8461L290.714 74.386L288.313 76.2492C282.181 80.5987 276.501 85.3395 270.853 90.5013C259.752 100.599 250.055 112.503 241.813 125.467C237.734 131.788 234.219 138.597 231.045 145.7Z" fill="white"/>
  <path d="M218.741 199.269C216.252 197.118 216.082 193.426 218.015 190.961L243.968 160.023C247.07 156.206 250.723 152.667 254.73 149.632L270.729 137.07L273.331 139.32L263.103 156.869C260.566 161.176 257.69 165.189 254.264 168.924L227.18 198.883C224.923 201.265 221.23 201.421 218.741 199.269Z" fill="url(#paint8_linear)"/>
  <defs>
    <linearGradient id="paint0_linear" x1="238.204" y1="177.102" x2="244.107" y2="170.274" gradientUnits="userSpaceOnUse">
      <stop stop-color="white"/>
      <stop offset="0.129" stop-color="#EFF6FF"/>
      <stop offset="0.5153" stop-color="#C6DFFF"/>
      <stop offset="0.8188" stop-color="#ACD0FF"/>
      <stop offset="1" stop-color="#A2CBFF"/>
    </linearGradient>
    <linearGradient id="paint1_linear" x1="266.466" y1="173.065" x2="300.758" y2="202.707" gradientUnits="userSpaceOnUse">
      <stop stop-color="#FC7200"/>
      <stop offset="0.4985" stop-color="#FCA22E"/>
      <stop offset="1" stop-color="#FDD661"/>
    </linearGradient>
    <linearGradient id="paint2_linear" x1="204.066" y1="118.752" x2="238.276" y2="148.327" gradientUnits="userSpaceOnUse">
      <stop stop-color="#FDD661"/>
      <stop offset="0.5015" stop-color="#FCA22E"/>
      <stop offset="1" stop-color="#FC7200"/>
    </linearGradient>
    <linearGradient id="paint3_linear" x1="286.782" y1="47.303" x2="296.457" y2="183.906" gradientUnits="userSpaceOnUse">
      <stop stop-color="white"/>
      <stop offset="0.2088" stop-color="#FBFDFF"/>
      <stop offset="0.416" stop-color="#EFF6FF"/>
      <stop offset="0.6226" stop-color="#DBEBFF"/>
      <stop offset="0.8275" stop-color="#BFDBFF"/>
      <stop offset="1" stop-color="#A2CBFF"/>
    </linearGradient>
    <linearGradient id="paint4_linear" x1="325.697" y1="44.5494" x2="329.854" y2="103.245" gradientUnits="userSpaceOnUse">
      <stop stop-color="#FDD661"/>
      <stop offset="0.5015" stop-color="#FCA22E"/>
      <stop offset="1" stop-color="#FC7200"/>
    </linearGradient>
    <linearGradient id="paint5_linear" x1="294.818" y1="89.5528" x2="297.552" y2="131.184" gradientUnits="userSpaceOnUse">
      <stop stop-color="#FCC715"/>
      <stop offset="0.0833177" stop-color="#FCC019"/>
      <stop offset="0.4305" stop-color="#FDA729"/>
      <stop offset="0.7462" stop-color="#FD9732"/>
      <stop offset="1" stop-color="#FD9235"/>
    </linearGradient>
    <linearGradient id="paint6_linear" x1="295.007" y1="93.5133" x2="297.393" y2="127.223" gradientUnits="userSpaceOnUse">
      <stop stop-color="#2559CD"/>
      <stop offset="0.3525" stop-color="#2255CC"/>
      <stop offset="0.6915" stop-color="#1B4AC7"/>
      <stop offset="1" stop-color="#0F38C1"/>
    </linearGradient>
    <linearGradient id="paint7_linear" x1="295.8" y1="104.142" x2="297.434" y2="127.219" gradientUnits="userSpaceOnUse">
      <stop stop-color="#0F38C1"/>
      <stop offset="0.3481" stop-color="#143FC3"/>
      <stop offset="0.8476" stop-color="#2052CA"/>
      <stop offset="1" stop-color="#2559CD"/>
    </linearGradient>
    <linearGradient id="paint8_linear" x1="242.909" y1="139.135" x2="247.156" y2="199.088" gradientUnits="userSpaceOnUse">
      <stop stop-color="#FDD661"/>
      <stop offset="0.5015" stop-color="#FCA22E"/>
      <stop offset="1" stop-color="#FC7200"/>
    </linearGradient>
  </defs>
</svg>
