<svg width="318" height="366" viewBox="0 0 318 366" fill="none" xmlns="http://www.w3.org/2000/svg">
  <g opacity="0.2">
    <path d="M307.282 365.246L308.547 365.246C292.069 346.365 255.034 332.449 213.571 329.604C202.344 328.845 195.101 324.638 192.602 317.427C190.768 312.114 191.527 305.441 194.848 298.103C198.168 290.798 203.671 283.523 210.787 277.071C213.507 274.605 216.606 271.473 219.896 268.121C235.171 252.592 256.108 231.37 274.673 241.111C284.825 246.456 286.723 256.545 288.715 267.203C290.74 278.019 292.827 289.215 304.371 294.591C307.85 296.204 311.866 297.343 316.421 298.007L316.421 296.078C312.151 295.445 308.419 294.37 305.162 292.852C294.503 287.887 292.574 277.64 290.55 266.823C288.557 256.165 286.501 245.159 275.527 239.403C261.041 231.813 245.671 241.396 232.325 253.351C221.73 261.796 212.021 272.359 204.873 278.526C180.268 299.717 172.678 331.723 205.348 335.708C237.513 339.66 266.831 350.666 285.333 365.214L307.282 365.246Z" fill="#DEF5F2"/>
    <path d="M250.316 21.115C246.616 20.5774 242.757 19.4388 238.677 18.2371C231.688 16.1814 224.54 14.0942 217.614 14.7901C211.447 14.1892 205.374 14.6637 199.808 17.7316C193.166 21.4004 190.984 30.2875 193.736 36.8342C202.37 57.3598 233.27 58.4347 237.54 81.8385L237.54 81.8701C240.196 91.6427 234.693 102.807 228.653 110.113C218.374 122.479 199.651 132.663 182.731 134.751C181.972 134.719 181.181 134.719 180.422 134.688C173.654 134.498 166.159 134.308 158.726 134.814C146.076 134.878 132.919 136.111 122.862 142.342C106.985 152.146 111.413 177.321 126.341 172.862C127.037 173.399 127.796 173.874 128.587 174.19C131.686 175.487 136.968 175.771 144.305 169.604C152.275 162.931 159.707 159.926 167.677 160.084C174.698 160.242 182.289 162.867 192.283 168.56C201.138 173.62 209.646 181.084 218.628 189.022C232.512 201.229 246.903 213.88 263.159 217.454C273.121 219.636 284.539 219.319 297.126 216.473C303.293 215.081 309.777 213.088 316.482 210.495L316.482 208.471C309.619 211.159 303.009 213.215 296.715 214.638C284.412 217.422 273.248 217.738 263.57 215.619C247.788 212.14 233.588 199.68 219.862 187.599C210.785 179.629 202.214 172.07 193.2 166.915C182.921 161.033 175.046 158.344 167.709 158.186C159.233 157.997 151.421 161.159 143.072 168.149C137.822 172.545 133.078 174 129.314 172.419C125.962 170.996 123.716 167.232 123.336 162.298C122.894 156.701 125.139 148.509 132.824 143.733C145.949 135.605 165.052 136.143 180.391 136.553C181.972 136.585 183.522 136.648 185.04 136.68C203.383 137.091 226.566 126.179 238.9 111.315C245.099 103.851 250.728 92.3067 247.976 82.2178L247.976 82.1862C245.13 72.0973 234.661 65.2977 224.509 58.7511C217.203 54.0072 210.308 49.5479 206.323 44.0449C202.497 38.795 200.978 33.3235 202.022 28.6744C202.907 24.7527 205.501 21.5583 209.77 19.1863C218.594 14.284 228.557 17.2252 238.171 20.0398C242.314 21.2732 246.236 22.4117 250.063 22.9809C261.069 24.5937 274.036 23.3601 286.56 19.5331C298.388 15.8959 308.857 10.1081 316.447 3.05519L316.447 0.430176C308.983 7.83093 298.23 13.935 285.991 17.6988C273.909 21.4309 260.911 22.6645 250.316 21.115Z" fill="#DEF5F2"/>
    <path d="M170.329 337.005C153.029 327.991 136.646 319.484 131.048 309.332C127.601 303.07 126.936 297.693 128.992 292.886C134.621 279.95 159.575 273.656 181.587 268.09C198.191 263.915 212.518 260.278 218.242 254.395C225.105 247.342 227.793 239.815 226.243 232.035C221.847 209.77 184.527 191.933 173.173 186.999C155.177 179.156 142.305 180.453 127.156 191.585C125.259 192.977 123.266 194.622 121.147 196.361C111.849 203.983 100.242 213.44 88.2556 209.076C78.8624 205.66 69.153 207.779 60.2027 215.212C52.7389 221.442 46.1291 231.215 42.1126 242.031C40.6578 245.953 39.3928 250.033 38.1594 253.986C33.6054 268.661 29.2727 282.514 15.5468 291.338C11.1191 294.184 5.83749 296.999 0.0814528 299.498L0.0814806 301.553C6.24867 298.928 11.8782 295.955 16.5905 292.919C30.8857 283.715 35.503 268.882 39.9938 254.524C41.2272 250.602 42.4606 246.554 43.9153 242.664C47.8053 232.132 54.1938 222.644 61.4362 216.635C67.2871 211.764 76.5853 206.799 87.6231 210.815C100.622 215.559 112.671 205.723 122.349 197.784C124.436 196.077 126.429 194.464 128.295 193.072C142.78 182.414 155.146 181.18 172.414 188.707C178.866 191.522 191.39 197.467 202.839 205.69C215.427 214.767 222.669 223.749 224.377 232.351C225.769 239.499 223.271 246.457 216.882 253.035C211.537 258.538 196.736 262.27 181.112 266.224C158.658 271.885 133.23 278.306 127.252 292.095C124.944 297.409 125.671 303.481 129.372 310.217C135.254 320.875 151.859 329.509 169.443 338.649C185.13 346.809 201.197 355.19 209.926 365.215L212.393 365.215C203.695 354.367 186.838 345.575 170.329 337.005Z" fill="#DEF5F2"/>
    <path d="M134.535 348.169C124.257 343.077 114.547 338.238 109.898 331.85C102.624 321.856 99.7771 310.407 101.896 299.591C104.046 288.553 111.226 278.748 122.073 272.043C126.438 269.355 134.945 266.762 143.991 264.01C162.081 258.507 182.575 252.276 185.295 241.459C186.18 237.917 185.769 234.723 184.061 231.971C179.507 224.603 166.635 221.788 156.324 219.543C151.865 218.562 148.007 217.74 145.635 216.696C132.794 211.099 123.591 212.047 112.774 219.986C111.162 221.188 109.58 222.516 107.872 223.939C103.476 227.64 98.9537 231.498 93.7353 232.605C91.1736 233.143 88.7383 232.669 86.1449 232.163C83.0455 231.562 79.8196 230.929 76.5304 232.226C63.437 237.286 58.63 255.535 54.7717 270.21C53.6964 274.29 52.6844 278.148 51.6092 281.248C44.5883 301.426 35.0058 329.036 14.5118 342.225C10.5269 344.786 5.59317 347.285 0.21664 349.372L0.216667 351.397C6.00434 349.214 11.3176 346.558 15.5555 343.806C36.5871 330.269 46.3278 302.28 53.4119 281.849C54.5188 278.654 55.5308 274.764 56.6377 270.653C60.4011 256.389 65.05 238.646 77.2578 233.934C80.0726 232.858 82.8558 233.396 85.8287 233.965C88.4853 234.471 91.2685 235.009 94.1781 234.408C99.8709 233.206 104.583 229.221 109.137 225.362C110.782 223.971 112.363 222.643 113.913 221.504C124.097 214.008 132.762 213.154 144.907 218.436C147.437 219.543 151.391 220.397 155.945 221.409C165.939 223.591 178.337 226.31 182.48 232.984C183.935 235.324 184.251 237.917 183.492 241.017C181.025 250.821 160.215 257.147 143.453 262.207C133.902 265.117 125.647 267.616 121.093 270.43C109.802 277.452 102.307 287.667 100.062 299.243C97.8479 310.597 100.789 322.552 108.38 332.988C113.314 339.756 123.213 344.69 133.713 349.877C142.98 354.462 152.436 359.175 158.509 365.279L161.165 365.279C154.935 358.289 144.624 353.166 134.535 348.169Z" fill="#DEF5F2"/>
    <path d="M101.198 351.553L100.408 350.604C90.5716 338.554 79.4388 324.923 84.5937 308.541C85.8587 304.492 87.9777 300.539 90.0017 296.744C94.461 288.363 99.0784 279.697 95.2198 269.228C92.8793 262.871 89.5585 261.195 87.1548 260.879C83.2964 260.405 79.1217 263.125 75.453 268.533C69.8868 276.724 67.3885 286.529 64.985 296.017C63.8148 300.603 62.6131 305.347 61.095 309.743C54.9281 327.454 46.8003 350.889 31.0188 365.28L33.7703 365.28C48.8877 350.51 56.8257 327.707 62.8662 310.375C64.4158 305.884 65.6492 301.109 66.8193 296.491C69.1912 287.161 71.6579 277.547 77.0344 269.608C80.2602 264.896 83.8657 262.397 86.9335 262.777C89.5901 263.093 91.8356 265.56 93.4487 269.893C97.0226 279.57 92.7847 287.477 88.3255 295.858C86.2698 299.748 84.1192 303.765 82.791 307.971L82.791 308.003C77.3514 325.366 88.8321 339.408 98.9528 351.837L99.7435 352.786C99.9965 353.102 100.376 353.545 100.819 354.083C104.203 358.163 107.144 361.895 109.611 365.279L111.983 365.279C108.884 360.946 105.405 356.613 102.274 352.849C101.799 352.312 101.451 351.869 101.198 351.553Z" fill="#DEF5F2"/>
    <path d="M184.852 54.1097C176.12 50.6057 168.194 49.3973 162.537 50.673C154.485 52.4911 150.052 58.6869 145.791 64.6969C144.242 66.8396 142.631 69.0967 140.896 71.0677C136.355 76.2159 130.91 78.8932 125.136 81.7402C119.121 84.7086 112.908 87.752 107.866 93.8153L107.782 93.9529C105.807 97.2092 104.472 100.239 103.774 102.952C98.9313 114.065 98.7219 126.876 109.723 131.14C123.587 136.501 139.127 117.444 151.085 112.517C167.314 105.81 183.349 115.113 199.992 110.381C211.9 107 219.617 93.893 218.801 88.5315C218.708 87.8861 218.548 87.2211 218.366 86.5792C218.35 86.177 218.312 85.798 218.252 85.3975C217.43 79.9019 213.727 73.9832 207.524 68.2528C201.46 62.6066 193.199 57.4724 184.852 54.1097ZM126.01 83.4514C131.696 80.6526 137.557 77.7574 142.356 72.3304C144.155 70.2897 145.788 68.0094 147.357 65.7988C151.619 59.8335 155.671 54.1898 162.969 52.5359C173.749 50.0951 193.598 57.9266 206.258 69.6234C212.135 75.0533 215.622 80.6001 216.382 85.6506C217.2 91.0568 212.353 95.2771 202.062 98.2132C194.936 100.241 187.474 101.14 180.234 101.986C170.589 103.151 160.631 104.328 151.249 108.191C147.836 109.602 144.51 111.524 141.317 113.396C133.07 118.221 125.26 122.76 115.713 119.064C112.736 117.906 110.33 116.502 108.634 114.935C103.756 110.428 103.99 103.883 109.365 94.9422C114.177 89.2685 120.192 86.3001 126.01 83.4514Z" fill="#DEF5F2"/>
    <path d="M264.927 279.599C264.105 279.093 263.188 278.714 262.207 278.429C256.008 276.658 248.702 278.492 242.187 283.426C234.597 289.182 229.663 297.911 229.664 305.66C229.664 306.482 229.727 307.336 229.822 308.127C230.296 311.543 232.067 314.262 235.103 316.255C241.176 320.208 251.518 320.303 258.191 318.405C262.049 317.298 265.56 314.041 268.058 309.233C270.336 304.869 271.632 299.492 271.632 294.464C271.6 287.537 269.165 282.097 264.927 279.599ZM257.685 316.571C252.34 318.121 242.125 318.532 236.147 314.642C233.585 312.966 232.099 310.689 231.719 307.842C231.624 307.115 231.561 306.387 231.561 305.628C231.561 298.449 236.178 290.289 243.326 284.913C249.367 280.358 256.071 278.65 261.701 280.232C262.523 280.453 263.282 280.801 263.978 281.212C267.647 283.394 269.734 288.201 269.734 294.464C269.703 303.446 265.117 314.452 257.685 316.571Z" fill="#DEF5F2"/>
    <path d="M267.624 173.658C268.55 173.934 269.534 174.063 270.554 174.084C277 174.191 283.582 170.528 288.599 164.076C294.44 156.551 296.947 146.843 294.941 139.358C294.728 138.564 294.446 137.756 294.15 137.017C292.808 133.84 290.393 131.671 286.944 130.532C280.056 128.286 270.042 130.871 264.087 134.431C260.647 136.499 258.099 140.554 256.93 145.844C255.86 150.649 255.999 156.178 257.301 161.036C259.124 167.718 262.884 172.342 267.624 173.658ZM265.051 136.072C269.812 133.191 279.573 130.15 286.354 132.361C289.262 133.317 291.287 135.131 292.391 137.783C292.671 138.461 292.92 139.147 293.116 139.88C294.975 146.815 292.626 155.892 287.114 162.935C282.458 168.897 276.424 172.283 270.577 172.212C269.725 172.211 268.902 172.072 268.123 171.855C264.015 170.696 260.754 166.593 259.133 160.544C256.839 151.86 258.42 140.042 265.051 136.072Z" fill="#DEF5F2"/>
    <path d="M218.349 145.711C217.006 146.486 215.468 148.061 215.789 151.098C216.087 153.939 218.122 158.135 220.137 160.075C223.038 162.876 228.833 162.216 232.727 159.968C235.502 158.366 237.126 156.115 237.125 153.788C237.133 153.336 237.07 152.865 236.949 152.397C236.339 149.945 233.922 147.67 230.357 146.148C226.687 144.597 221.549 143.863 218.349 145.711ZM235.467 152.776C235.545 153.118 235.589 153.452 235.596 153.775C235.576 155.548 234.256 157.294 231.951 158.625C227.655 161.106 223.047 160.722 221.193 158.958C219.461 157.303 217.594 153.397 217.33 150.924C217.143 149.152 217.736 147.855 219.124 147.054C221.474 145.697 225.84 145.921 229.783 147.583C232.837 148.893 234.968 150.826 235.467 152.776Z" fill="#DEF5F2"/>
    <path d="M251.507 63.627C251.381 68.8137 253.563 73.9689 258.149 79.4719C265.36 88.0742 275.86 93.0395 285.981 97.8466C286.613 98.1313 287.214 98.4159 287.815 98.7322C309.922 109.232 327.886 119.162 343.637 133.521C344.332 134.153 345.123 134.849 345.977 135.64C347.242 136.778 348.697 138.075 350.247 139.498L350.247 136.936C349.171 135.956 348.159 135.07 347.242 134.248C346.388 133.489 345.597 132.762 344.902 132.161C328.962 117.644 310.871 107.651 288.606 97.0559C288.005 96.7713 287.372 96.4867 286.74 96.1704C276.777 91.4581 266.498 86.5878 259.54 78.3016C255.271 73.1782 253.215 68.4026 253.341 63.7218C253.468 57.5862 255.081 52.3994 257.99 48.7307C261.153 44.7457 265.612 42.7531 271.273 42.8795C281.299 43.0692 290.376 47.5284 299.168 51.8612C307.929 56.1623 316.943 60.5899 327.158 61.0642C335.792 61.4436 343.762 60.3049 350.246 57.8379L350.246 55.8138C343.92 58.344 335.95 59.546 327.253 59.1666C317.449 58.7239 308.593 54.3595 300.022 50.1533C291.072 45.7573 281.805 41.2032 271.337 40.9819C259.445 40.6974 251.823 49.3949 251.507 63.627Z" fill="#DEF5F2"/>
  </g>
</svg>
