<svg width="45" height="45" viewBox="0 0 45 45" fill="none" xmlns="http://www.w3.org/2000/svg">
    <circle cx="22.5" cy="22.5" r="22.5" fill="#F96D49"/>
    <path d="M15.6299 33C13.6318 32.9983 12.0032 31.2887 12 29.1894V16.8106C12.0016 14.713 13.6302 13.0033 15.6299 13H30.3701C30.7459 13 31.052 13.3213 31.052 13.7158V18.3571C31.052 18.8165 31.4072 19.1894 31.8449 19.1894H33.3181C33.6939 19.1894 34 19.5107 34 19.9053V32.2842C34 32.6787 33.6939 33 33.3181 33H15.6299ZM14.1567 20.3348C13.9965 20.3348 13.838 20.3847 13.7032 20.4846C13.4907 20.6394 13.3638 20.8958 13.3638 21.1671V29.1894C13.3654 30.5012 14.3819 31.5667 15.6299 31.5683H31.8465C32.2842 31.5683 32.6394 31.1954 32.6394 30.736V21.4535C32.6394 20.994 32.2842 20.6211 31.8465 20.6211H15.6299C15.224 20.6178 14.818 20.5379 14.4311 20.388C14.3423 20.3531 14.2487 20.3348 14.1567 20.3348ZM15.6299 14.43C14.3803 14.43 13.3622 15.4971 13.3622 16.8106C13.3622 18.124 14.3787 19.1911 15.6299 19.1911H28.8969C29.3345 19.1911 29.6898 18.8182 29.6898 18.3587V15.2624C29.6898 14.8029 29.3345 14.43 28.8969 14.43H15.6299Z" fill="white"/>
</svg>
